<svg width="77" height="78" viewBox="0 0 77 78" fill="none" xmlns="http://www.w3.org/2000/svg">
<rect y="6" width="72" height="72" rx="36" fill="#D38D00"/>
<rect x="49" width="28" height="28" rx="14" fill="white"/>
<g clip-path="url(#clip0_84_2)">
<path d="M45.3333 26H26.6667C24.8992 26.0021 23.2047 26.7052 21.955 27.955C20.7052 29.2047 20.0021 30.8992 20 32.6667L20 51.3333C20.0021 53.1008 20.7052 54.7953 21.955 56.045C23.2047 57.2948 24.8992 57.9979 26.6667 58H45.3333C47.1008 57.9979 48.7953 57.2948 50.045 56.045C51.2948 54.7953 51.9979 53.1008 52 51.3333V32.6667C51.9979 30.8992 51.2948 29.2047 50.045 27.955C48.7953 26.7052 47.1008 26.0021 45.3333 26V26ZM26.6667 28.6667H45.3333C46.3942 28.6667 47.4116 29.0881 48.1618 29.8382C48.9119 30.5884 49.3333 31.6058 49.3333 32.6667V51.3333C49.331 51.9273 49.1943 52.5131 48.9333 53.0467L36.716 40.8293C36.0969 40.2101 35.3619 39.7189 34.553 39.3837C33.744 39.0486 32.877 38.8761 32.0013 38.8761C31.1257 38.8761 30.2587 39.0486 29.4497 39.3837C28.6408 39.7189 27.9057 40.2101 27.2867 40.8293L22.6667 45.448V32.6667C22.6667 31.6058 23.0881 30.5884 23.8382 29.8382C24.5884 29.0881 25.6058 28.6667 26.6667 28.6667ZM26.6667 55.3333C25.6058 55.3333 24.5884 54.9119 23.8382 54.1618C23.0881 53.4116 22.6667 52.3942 22.6667 51.3333V49.2187L29.1707 42.7147C29.5421 42.343 29.9832 42.0481 30.4687 41.8469C30.9541 41.6457 31.4745 41.5422 32 41.5422C32.5255 41.5422 33.0459 41.6457 33.5313 41.8469C34.0168 42.0481 34.4579 42.343 34.8293 42.7147L47.0467 54.9333C46.5131 55.1943 45.9273 55.331 45.3333 55.3333H26.6667Z" fill="white"/>
<path d="M41.3335 39.9996C42.2565 39.9996 43.1588 39.7259 43.9262 39.2131C44.6936 38.7003 45.2918 37.9715 45.645 37.1188C45.9982 36.2661 46.0906 35.3278 45.9105 34.4225C45.7305 33.5173 45.286 32.6857 44.6334 32.0331C43.9807 31.3805 43.1492 30.936 42.244 30.7559C41.3387 30.5759 40.4004 30.6683 39.5477 31.0215C38.695 31.3747 37.9661 31.9728 37.4533 32.7403C36.9406 33.5077 36.6669 34.4099 36.6669 35.3329C36.6669 36.5706 37.1585 37.7576 38.0337 38.6328C38.9089 39.5079 40.0959 39.9996 41.3335 39.9996ZM41.3335 33.3329C41.7291 33.3329 42.1158 33.4502 42.4447 33.67C42.7736 33.8898 43.0299 34.2021 43.1813 34.5676C43.3327 34.933 43.3723 35.3351 43.2951 35.7231C43.2179 36.1111 43.0275 36.4674 42.7477 36.7471C42.468 37.0268 42.1117 37.2173 41.7237 37.2945C41.3358 37.3717 40.9336 37.3321 40.5682 37.1807C40.2027 37.0293 39.8904 36.773 39.6706 36.4441C39.4508 36.1152 39.3335 35.7285 39.3335 35.3329C39.3335 34.8025 39.5443 34.2938 39.9193 33.9187C40.2944 33.5436 40.8031 33.3329 41.3335 33.3329Z" fill="white"/>
</g>
<path d="M68 13H64V9C64 8.73478 63.8946 8.48043 63.7071 8.29289C63.5196 8.10536 63.2652 8 63 8C62.7348 8 62.4804 8.10536 62.2929 8.29289C62.1054 8.48043 62 8.73478 62 9V13H58C57.7348 13 57.4804 13.1054 57.2929 13.2929C57.1054 13.4804 57 13.7348 57 14C57 14.2652 57.1054 14.5196 57.2929 14.7071C57.4804 14.8946 57.7348 15 58 15H62V19C62 19.2652 62.1054 19.5196 62.2929 19.7071C62.4804 19.8946 62.7348 20 63 20C63.2652 20 63.5196 19.8946 63.7071 19.7071C63.8946 19.5196 64 19.2652 64 19V15H68C68.2652 15 68.5196 14.8946 68.7071 14.7071C68.8946 14.5196 69 14.2652 69 14C69 13.7348 68.8946 13.4804 68.7071 13.2929C68.5196 13.1054 68.2652 13 68 13Z" fill="#D38D00"/>
<defs>
<clipPath id="clip0_84_2">
<rect width="32" height="32" fill="white" transform="translate(20 26)"/>
</clipPath>
</defs>
</svg>
