<svg width="15" height="16" viewBox="0 0 15 16" fill="none" xmlns="http://www.w3.org/2000/svg">
<path d="M0.826261 9.14176L5.74806 14.062C6.13762 14.4515 6.70547 14.6037 7.23775 14.4611C7.76992 14.3185 8.18565 13.9028 8.32826 13.3705C8.47088 12.8383 8.31874 12.2705 7.92909 11.8808L4.04983 8.00022L7.92909 4.11962C8.2183 3.8304 8.38079 3.43814 8.38079 3.029C8.38079 2.61996 8.21829 2.2277 7.92909 1.93848C7.63988 1.64927 7.24761 1.48678 6.83857 1.48678C6.42954 1.48678 6.03727 1.64928 5.74806 1.93848L0.826529 6.85867C0.537099 7.14829 0.375013 7.54131 0.376379 7.95077V8.00026C0.362044 8.42665 0.524962 8.83997 0.826424 9.14183L0.826261 9.14176Z" fill="#49516F"/>
<path d="M6.61892 7.95021V7.9997C6.60459 8.42609 6.76751 8.83941 7.06897 9.14127L11.9921 14.0615C12.3818 14.451 12.9496 14.6032 13.4818 14.4606C14.0141 14.318 14.4298 13.9023 14.5724 13.37C14.715 12.8378 14.5628 12.27 14.1732 11.8803L10.2926 7.99973L14.1732 4.11913C14.4625 3.82992 14.6249 3.43765 14.6249 3.02851C14.6249 2.61948 14.4624 2.22721 14.1732 1.93799C13.884 1.64878 13.4918 1.48629 13.0827 1.48629C12.6736 1.48629 12.2813 1.64879 11.9921 1.93799L7.07058 6.85818C6.78115 7.14791 6.61876 7.54071 6.61908 7.95028L6.61892 7.95021Z" fill="#49516F"/>
</svg>
