<svg width="30" height="33" viewBox="0 0 30 33" fill="none" xmlns="http://www.w3.org/2000/svg">
<g clip-path="url(#clip0_1097_302)">
<path d="M27.8746 29.127C28.1706 29.142 28.3992 29.1447 28.6279 29.1652C28.9935 29.1901 29.3361 29.3477 29.5877 29.6066C29.8392 29.8655 29.9813 30.2069 29.9857 30.5628C30.0193 31.1513 29.9857 31.7425 29.9969 32.3337C29.9969 32.7764 29.8075 33.0148 29.3264 33.0012C29.1861 33.0012 29.0459 33.0012 28.9056 33.0012H1.0756C0.0305772 33.0012 0.00530897 32.9753 0.00390625 31.9768C0.00390625 31.5913 0.00390625 31.2058 0.00390625 30.8189C0.0207389 29.721 0.531346 29.2129 1.66895 29.1556C1.80923 29.1556 1.93967 29.1298 2.11641 29.1134V19.7358C1.99578 19.7208 1.86814 19.7004 1.73909 19.6909C0.879221 19.6337 0.419131 19.1841 0.409312 18.3423C0.395285 17.1163 0.392479 15.8903 0.409312 14.6643C0.430353 13.1195 1.56796 12.0242 3.17688 12.0174C6.14364 12.0038 9.11179 12.0174 12.0799 12.0174H12.9286C12.944 11.7518 12.9693 11.5148 12.9693 11.2777C12.9693 9.98363 12.9693 8.68951 12.9693 7.39676C12.9693 5.81793 12.9693 5.81793 14.6105 5.51143C14.4667 5.34256 14.3075 5.18663 14.1349 5.04555C13.327 4.51292 13.0128 3.81954 13.3452 2.93682C13.6795 2.06699 14.0669 1.21727 14.5053 0.392174C14.7746 -0.130922 15.2262 -0.124111 15.4984 0.404434C15.9252 1.20992 16.305 2.0381 16.636 2.88506C16.9839 3.80728 16.6823 4.49657 15.8449 5.05236C15.6878 5.15589 15.5769 5.32481 15.3567 5.56047C15.6372 5.5918 15.7551 5.60951 15.8673 5.61632C16.7594 5.66945 17.0147 5.91738 17.0217 6.8001C17.0316 8.27539 17.0217 9.75069 17.0217 11.2246V12.0174H19.4737C21.8794 12.0174 24.2864 12.0174 26.6935 12.0174C28.4693 12.0174 29.5761 13.0963 29.5873 14.8182C29.5943 15.8399 29.5873 16.8615 29.5873 17.8818C29.5873 19.2917 29.3292 19.5778 27.8676 19.7481L27.8746 29.127ZM15.0032 12.9683C11.0999 12.9683 7.19615 12.9683 3.29191 12.9683C2.05611 12.9683 1.39542 13.6181 1.3856 14.8209C1.37859 15.6382 1.36175 16.4556 1.3856 17.2729C1.40384 17.7497 1.50765 18.2265 1.57358 18.6964C2.06453 18.4717 2.60597 18.3123 3.03801 18.0085C4.66797 16.8602 6.56446 16.852 8.16216 18.0467C9.64904 19.1596 10.9297 19.1569 12.432 18.0399C14.0283 16.852 15.9627 16.8479 17.5464 18.0303C19.0515 19.1542 20.3293 19.1623 21.8176 18.0616C23.4602 16.8465 25.3245 16.8479 26.9909 18.0616C27.2701 18.2651 27.5651 18.4473 27.8732 18.6065C28.3473 18.8477 28.6208 18.7523 28.6124 18.1652C28.5956 17.0986 28.6124 16.0319 28.6124 14.9653C28.6124 13.5731 27.9938 12.9696 26.5729 12.9683C22.7163 12.9655 18.8598 12.9655 15.0032 12.9683ZM26.8646 24.7502C26.8646 22.8008 26.8646 21.1239 26.8548 19.447C26.8385 19.2751 26.7582 19.1147 26.629 18.9961C25.4689 17.9213 23.724 17.7361 22.5443 18.7468C20.955 20.1091 18.4427 20.1213 16.8506 18.7319C16.3425 18.2941 15.6873 18.0518 15.0081 18.0506C14.3289 18.0493 13.6726 18.2892 13.1628 18.7251C12.3648 19.3992 11.342 19.7692 10.2844 19.7664C9.22668 19.7637 8.20597 19.3883 7.41169 18.7101C6.24182 17.7225 4.39302 17.9527 3.33116 19.0316C3.21621 19.1635 3.15181 19.33 3.14883 19.5029C3.132 20.5014 3.11795 21.4999 3.16143 22.4998C3.16985 22.685 3.40833 22.9221 3.60331 23.0283C4.20789 23.3553 4.8896 23.561 5.4549 23.9383C6.84219 24.8646 8.32205 24.9028 9.68549 23.9519C11.6367 22.5897 13.4322 22.5897 15.3609 23.9383C16.7328 24.8919 18.2084 24.8919 19.5831 23.9383C21.5175 22.587 23.3396 22.6033 25.2627 23.9383C25.692 24.2421 26.2138 24.4273 26.8646 24.7502ZM26.8646 29.1093C26.8646 27.9977 26.8787 26.9584 26.8492 25.9203C26.8492 25.7841 26.6528 25.5975 26.5013 25.5212C25.8463 25.1916 25.1238 24.9668 24.5179 24.5677C23.1586 23.6768 21.6746 23.6359 20.342 24.5581C18.3431 25.9435 16.6009 25.9462 14.6105 24.5677C13.2695 23.64 11.77 23.6413 10.4444 24.5677C8.48058 25.9435 6.67526 25.9299 4.71285 24.5677C4.28362 24.2693 3.76181 24.099 3.20352 23.8307V29.1189L26.8646 29.1093ZM1.02088 31.9932H29.0164C29.0164 31.6185 28.994 31.3012 29.0164 30.9865C29.0697 30.353 28.8214 30.0329 28.1355 30.1037C27.9724 30.1119 27.809 30.1119 27.6459 30.1037C19.3493 30.1037 11.0527 30.1074 2.75606 30.1146C0.956371 30.1174 0.890426 29.7836 1.02088 31.9932ZM16.0062 11.9847V6.59985H13.9806V11.9847H16.0062ZM15.1168 1.65496L14.8742 1.66586C14.6652 2.23391 14.4084 2.79106 14.2696 3.37545C14.2163 3.59886 14.3594 4.00072 14.5501 4.11106C14.686 4.17744 14.8354 4.21371 14.9875 4.21724C15.1396 4.22077 15.2906 4.19149 15.4296 4.13149C15.6218 4.02933 15.7943 3.62611 15.7438 3.40951C15.5966 2.81013 15.3385 2.238 15.1168 1.65496Z" fill="#D38D00"/>
</g>
<defs>
<clipPath id="clip0_1097_302">
<rect width="30" height="33" fill="white"/>
</clipPath>
</defs>
</svg>
