<svg width="342" height="342" viewBox="0 0 342 342" fill="none" xmlns="http://www.w3.org/2000/svg">
<path d="M22.4155 86.1908L86.1962 22.3857C74.8728 28.8587 64.3582 36.6031 54.8451 45.3879L45.4089 54.8277C36.6275 64.383 28.886 74.8631 22.4155 86.1908Z" fill="#D38D00"/>
<path d="M3.38965 136.895L136.882 3.35205C133.185 4.08411 129.564 4.97023 125.944 5.93346L5.97014 125.953C4.96875 129.575 4.12143 133.235 3.38965 136.895Z" fill="#D38D00"/>
<path d="M0 170.84C0 171.187 0 171.572 0 171.919L171.853 0C171.507 0 171.122 0 170.775 0C168.31 0 165.807 0.077092 163.38 0.154151L0.154034 163.442C0.0770039 165.908 0 168.374 0 170.84Z" fill="#D38D00"/>
<path d="M2.65841 200.97L200.895 2.65853C198.507 2.23471 196.08 1.8495 193.692 1.54126L1.5415 193.765C1.84962 196.154 2.23475 198.581 2.65841 200.97Z" fill="#D38D00"/>
<path d="M9.12828 226.13L226.044 9.13154C223.964 8.39948 221.846 7.7444 219.728 7.12793L7.12549 219.811C7.74173 221.93 8.43501 224.049 9.12828 226.13Z" fill="#D38D00"/>
<path d="M18.5642 248.362L248.306 18.5329C246.457 17.5697 244.569 16.6835 242.682 15.7974L15.8296 242.736C16.7154 244.663 17.6013 246.512 18.5642 248.362Z" fill="#D38D00"/>
<path d="M30.4269 268.166L268.102 30.3999C266.446 29.244 264.79 28.1267 263.095 27.0479L27.0762 263.157C28.1546 264.891 29.2715 266.548 30.4269 268.166Z" fill="#D38D00"/>
<path d="M44.4466 285.812L285.704 44.4633C284.24 43.1533 282.777 41.8433 281.275 40.5718L40.5566 281.382C41.8276 282.884 43.0986 284.348 44.4466 285.812Z" fill="#D38D00"/>
<path d="M60.5458 301.34L301.225 60.5686C299.954 59.0659 298.645 57.5632 297.335 56.0991L56.0781 297.448C57.5802 298.797 59.0437 300.068 60.5458 301.34Z" fill="#D38D00"/>
<path d="M78.7633 314.825L314.705 78.793C313.627 77.0977 312.51 75.4409 311.355 73.7842L73.7563 311.473C75.4125 312.59 77.0686 313.708 78.7633 314.825Z" fill="#D38D00"/>
<path d="M99.2144 325.998L325.875 99.2522C324.989 97.3643 324.103 95.4764 323.14 93.627L93.5527 323.302C95.44 324.226 97.3272 325.151 99.2144 325.998Z" fill="#D38D00"/>
<path d="M122.208 334.668L334.579 122.216C333.962 120.097 333.269 117.978 332.576 115.897L115.891 332.664C117.932 333.396 120.051 334.051 122.208 334.668Z" fill="#D38D00"/>
<path d="M148.283 340.216L340.087 148.339C339.779 145.911 339.394 143.484 338.97 141.095L141.042 339.098C143.468 339.561 145.856 339.907 148.283 340.216Z" fill="#D38D00"/>
<path d="M170.775 341.719C173.432 341.719 176.051 341.642 178.632 341.526L341.357 178.739C341.473 176.119 341.55 173.499 341.55 170.879C341.55 170.648 341.55 170.455 341.55 170.224L170.12 341.719C170.351 341.719 170.582 341.719 170.775 341.719Z" fill="#D38D00"/>
<path d="M216.261 335.592L335.465 216.343C336.466 212.722 337.352 209.061 338.122 205.362L205.285 338.251C208.982 337.48 212.641 336.556 216.261 335.592Z" fill="#D38D00"/>
<path d="M318.557 256.568L256.432 318.717C282.16 303.729 303.613 282.268 318.557 256.568Z" fill="#D38D00"/>
</svg>
