<svg width="35" height="29" viewBox="0 0 35 29" fill="none" xmlns="http://www.w3.org/2000/svg">
<g clip-path="url(#clip0_1097_293)">
<path d="M17.6013 23.8692L16.2243 25.3698C15.7708 25.8613 15.3305 25.9121 14.8293 25.4075C13.0383 23.6022 11.238 21.8061 9.42842 20.0193C8.96671 19.5623 8.93549 19.1347 9.42842 18.694L10.6115 17.639C10.0298 16.8199 9.46127 16.4267 8.46718 16.4562C3.99462 16.5938 0.443833 13.3206 0.0297682 8.78271C-0.343219 4.71006 2.77708 0.779939 6.91445 0.11154C8.97596 -0.239989 11.0944 0.204646 12.8388 1.355C14.5832 2.50535 15.8226 4.27503 16.3048 6.30406C16.4562 6.9687 16.5366 7.64742 16.5447 8.32892C16.5743 9.55268 16.5447 9.55268 17.6752 10.588C18.0252 10.2014 18.3817 9.80333 18.7432 9.40851C19.1737 8.93998 19.6042 8.90066 20.0758 9.37575C21.8898 11.1964 23.7103 13.0104 25.5375 14.818C25.9729 15.2521 25.9614 15.6748 25.5244 16.0925C25.0314 16.5627 24.5385 17.0263 23.9782 17.5522C25.0593 18.7366 26.0222 19.8883 27.0886 20.9351C28.8369 22.6504 29.7735 24.5196 28.528 26.9147C30.2237 27.5421 31.7633 26.6132 31.8142 24.8292C31.8422 23.7775 31.5842 22.67 31.2309 21.6674C30.8251 20.5206 30.1251 19.4771 29.6338 18.3533C27.8839 14.3576 29.5319 9.48223 33.3242 7.36072C33.5855 7.21492 33.8681 6.99704 34.1359 7.00195C34.4333 7.00195 34.8376 7.16578 34.9805 7.3853C35.0807 7.54912 34.8392 7.93411 34.7176 8.20442C34.6831 8.28141 34.5303 8.30271 34.4333 8.35513C30.7133 10.321 29.3282 14.3838 31.1027 18.1845C31.5875 19.2215 32.1576 20.2209 32.6276 21.2644C33.1961 22.5275 33.4705 23.8463 33.2109 25.2486C32.7409 27.7747 30.6312 29.0902 28.1468 28.3448C27.6768 28.204 27.3252 28.181 26.8602 28.4464C25.2713 29.3606 23.4179 29.1132 21.995 27.8583C21.2769 27.2259 20.5802 26.569 19.872 25.9252C19.1638 25.2814 18.4557 24.6457 17.6013 23.8692ZM15.1514 8.33711C15.1119 3.83361 11.1307 0.673456 6.80597 1.57776C3.41951 2.28712 1.06987 5.59471 1.48065 9.07759C1.89143 12.5605 4.97721 15.2423 8.43104 15.0866C8.95946 15.0437 9.45896 14.8284 9.85232 14.4739C11.4034 13.0126 12.8707 11.4612 14.4103 9.98845C14.9493 9.47404 15.2647 8.9449 15.1514 8.33711ZM19.4366 10.8616L10.9384 19.3198L15.5392 23.8643L24.0061 15.4192L19.4366 10.8616ZM18.7596 23.0124C20.1908 24.3132 21.6335 25.6876 23.1484 26.9769C24.2641 27.9255 25.8497 27.7797 26.8684 26.759C27.8872 25.7384 28.0268 24.2018 27.11 23.1156C25.8152 21.5806 24.4218 20.1258 23.1041 18.6727L18.7596 23.0124ZM11.4971 16.3825L16.4544 11.4399L15.9006 10.8452L10.9006 15.8255L11.4971 16.3825Z" fill="#D38D00"/>
<path d="M17.4695 17.9726C17.4695 17.355 17.4695 16.8143 17.4695 16.2737C17.4695 15.7823 17.6667 15.3236 18.199 15.4268C18.4685 15.4792 18.8053 15.9461 18.8448 16.2574C18.9384 17.0093 18.8695 17.7793 18.876 18.5509C18.876 19.1652 18.5852 19.4519 17.9723 19.4355C17.6437 19.4355 17.2887 19.5158 16.9963 19.4126C16.6676 19.2963 16.1961 19.0636 16.1287 18.7966C15.9972 18.2642 16.4573 18.066 16.9503 18.0397C17.0784 18.025 17.2148 18.0021 17.4695 17.9726Z" fill="#D38D00"/>
</g>
<defs>
<clipPath id="clip0_1097_293">
<rect width="35" height="29" fill="white"/>
</clipPath>
</defs>
</svg>
