<svg width="61" height="60" viewBox="0 0 61 60" fill="none" xmlns="http://www.w3.org/2000/svg">
<g clip-path="url(#clip0_1097_131)">
<path d="M52.9819 59.9937H52.0444C51.9602 59.9506 51.8717 59.9165 51.7804 59.8922C48.6397 59.4078 45.4991 58.926 42.3585 58.4468C33.5929 57.0927 24.8278 55.7349 16.0632 54.3734C14.8522 54.1859 14.096 53.2031 14.2772 51.9937C14.6929 49.2172 15.1288 46.4453 15.5538 43.6703C15.6944 42.7562 15.8288 41.8406 15.9741 40.8578H15.2007C11.0835 40.8578 6.96475 40.8375 2.84756 40.8687C1.59756 40.8797 0.691308 40.4672 0.247559 39.2453V1.52344C0.543176 0.840379 1.08794 0.295617 1.771 0H39.5054C40.7116 0.46875 41.1007 1.3625 41.0898 2.61875C41.0476 7.18281 41.0741 11.7469 41.071 16.3094C41.071 16.6562 41.0522 16.9234 41.5397 16.9969C46.9538 17.8078 52.3616 18.6609 57.7757 19.4625C58.8928 19.6281 59.7835 19.9937 60.2522 21.0875V22.1422C60.2091 22.2274 60.1751 22.317 60.1507 22.4094C58.8569 30.775 57.5647 39.1416 56.2741 47.5093C56.1647 48.2203 55.8304 48.5312 55.2663 48.4468C54.7022 48.3625 54.4272 47.9594 54.5303 47.2734C54.7663 45.7109 55.0132 44.1484 55.2538 42.5859C56.2955 35.8203 57.3397 29.0536 58.3866 22.2859C58.5319 21.3484 58.5194 21.3578 57.5647 21.2125C53.0731 20.525 48.5814 19.8328 44.0897 19.1359C43.1116 18.9797 42.1319 18.8453 41.11 18.6937V20.5922C41.2585 20.6389 41.4092 20.678 41.5616 20.7094C43.1428 20.9547 44.7241 21.1937 46.3054 21.4375C49.2929 21.8989 52.2804 22.3625 55.2679 22.8281C56.0132 22.9453 56.2241 23.2469 56.1569 23.9969C56.1429 24.1531 56.1147 24.3094 56.0913 24.4656C55.3236 29.401 54.5606 34.3375 53.8022 39.275C53.0043 44.4406 52.2059 49.6068 51.4069 54.7734C51.2413 55.8328 50.9522 56.0422 49.9116 55.8859C48.0601 55.6078 46.2116 55.3093 44.3601 55.025C38.8851 54.1791 33.41 53.3354 27.935 52.4937C25.0241 52.0437 22.1132 51.5953 19.2054 51.1312C18.4726 51.014 18.2147 50.6484 18.321 49.9547C18.5663 48.3531 18.8241 46.7547 19.0725 45.1547C19.2882 43.7484 19.4991 42.35 19.7241 40.8719C19.1241 40.8719 18.5819 40.85 18.0444 40.889C17.9241 40.889 17.7397 41.1062 17.7179 41.2453C17.1522 44.8281 16.6116 48.4156 16.0429 52C15.9679 52.4687 16.1226 52.625 16.5585 52.6922C17.6788 52.8484 18.796 53.0281 19.9148 53.2015L35.4725 55.5968C40.9277 56.4385 46.3835 57.2817 51.8397 58.1265C52.7647 58.2687 52.8163 58.2609 52.9819 57.3218C53.2944 55.5937 53.5319 53.8562 53.7928 52.1203C53.8928 51.45 54.2616 51.1218 54.8272 51.2156C55.3663 51.3047 55.6288 51.7219 55.5319 52.3594C55.2569 54.1531 54.9444 55.9406 54.7132 57.739C54.5694 58.8609 54.0632 59.6328 52.9819 59.9937ZM2.00537 20.45V38.3187C2.00537 39.1 2.01631 39.1109 2.78662 39.1109H38.5225C39.3038 39.1109 39.3163 39.1015 39.3163 38.3297V2.53906C39.3163 1.75781 39.3163 1.75781 38.535 1.75781H2.79757C2.00694 1.75781 2.00537 1.75781 2.00537 2.58281V20.45ZM20.1788 49.5125L49.7366 54.0765C51.2647 44.1719 52.7819 34.3453 54.31 24.4578L41.0725 22.4156V38.364C41.0725 40.1172 40.3257 40.864 38.5851 40.864H27.921C25.9882 40.864 24.0538 40.875 22.121 40.8547C21.6819 40.8547 21.4679 40.9219 21.4116 41.4281C21.2929 42.5125 21.0835 43.5875 20.9179 44.6672C20.671 46.2703 20.4288 47.8672 20.1788 49.5125Z" fill="white"/>
<path d="M5.72122 35.3768H35.5806V5.48613H5.72122C5.72122 6.29394 5.72122 7.08613 5.72122 7.87988C5.72122 8.25176 5.73841 8.62519 5.7056 8.99238C5.70266 9.10533 5.67701 9.21653 5.6302 9.31936C5.58339 9.4222 5.51636 9.51456 5.43311 9.59096C5.34987 9.66735 5.2521 9.72621 5.14564 9.76404C5.03917 9.80186 4.92618 9.81788 4.8134 9.81113C4.70039 9.81364 4.58808 9.79282 4.48348 9.74996C4.37889 9.70709 4.28426 9.64312 4.20551 9.56202C4.12676 9.48093 4.06559 9.38446 4.02582 9.27865C3.98604 9.17284 3.96851 9.05996 3.97434 8.94707C3.95402 7.81426 3.96497 6.68144 3.96497 5.54863C3.96497 3.69238 3.96497 3.68457 5.82435 3.68457H35.94C37.2025 3.68457 37.3931 3.87676 37.3931 5.14863V35.7924C37.3931 36.9408 37.1728 37.1643 36.0337 37.1643H5.26653C4.18371 37.1643 3.95715 36.9408 3.95715 35.8705C3.95715 28.6049 3.95715 21.3393 3.95715 14.0736C3.94895 13.8595 3.96047 13.645 3.99154 13.433C4.07123 13.0049 4.39467 12.7424 4.77279 12.808C5.11068 12.8905 5.4101 13.0863 5.62122 13.3627C5.76028 13.5424 5.7056 13.8877 5.7056 14.158C5.7056 20.9549 5.7056 27.7512 5.7056 34.5471L5.72122 35.3768Z" fill="white"/>
<path d="M20.6336 13.6062C21.0727 13.2016 21.454 12.7797 21.9009 12.4469C24.7774 10.3109 28.693 11.4391 30.2399 14.8547C31.2977 17.1984 30.9149 19.4641 29.7962 21.6687C29.079 23.075 28.0633 24.2625 26.8946 25.3141C25.2243 26.8199 23.3257 28.0514 21.2696 28.9625C20.924 29.1145 20.5342 29.1329 20.1758 29.014C17.5055 27.8406 15.0946 26.275 13.1446 24.0797C11.679 22.4375 10.6899 20.5641 10.5102 18.3328C10.354 16.3016 10.8993 14.5031 12.3446 13.0344C14.5961 10.7438 18.0868 10.8172 20.2602 13.1813C20.3805 13.3219 20.5071 13.4656 20.6336 13.6062ZM29.0915 17.6969C29.1301 16.5922 28.7708 15.5104 28.079 14.6484C27.0962 13.4187 25.829 12.8547 24.2555 13.2422C22.9509 13.5547 22.0946 14.4344 21.5571 15.6375C21.3759 16.0406 21.1352 16.3312 20.6446 16.3234C20.154 16.3156 19.943 16.0016 19.7555 15.6062C19.0727 14.1641 17.9962 13.2109 16.3446 13.1375C14.3805 13.05 12.6555 14.625 12.3165 16.7453C11.9821 18.8312 12.6774 20.6359 13.9196 22.2531C15.6383 24.4859 17.918 26.0031 20.4227 27.2C20.5086 27.2316 20.5999 27.2459 20.6913 27.2422C20.7827 27.2384 20.8725 27.2166 20.9555 27.1781C23.1212 26.1062 25.1118 24.7812 26.7446 22.9781C28.1024 21.4766 29.0321 19.7766 29.0915 17.6969Z" fill="white"/>
</g>
<defs>
<clipPath id="clip0_1097_131">
<rect width="60" height="60" fill="white" transform="translate(0.247559)"/>
</clipPath>
</defs>
</svg>
