<svg width="10" height="17" viewBox="0 0 10 17" fill="none" xmlns="http://www.w3.org/2000/svg">
<g clip-path="url(#clip0_1313_124)">
<path d="M2.87318 9.53824C2.2272 9.53824 1.62099 9.53824 1.01543 9.53824C0.452233 9.53824 0.383789 9.46632 0.383789 8.89428C0.383789 8.14651 0.383789 7.39873 0.383789 6.65096C0.383789 6.16733 0.466574 6.08353 0.955457 6.0809C1.47693 6.07694 1.99841 6.0809 2.51988 6.0809C2.62548 6.0809 2.73108 6.07166 2.87448 6.06506C2.87448 5.43495 2.83472 4.81936 2.88556 4.21103C2.93576 3.61721 3.00616 3.00426 3.19519 2.44343C3.68733 0.985273 4.79025 0.228484 6.25885 0.068153C7.13949 -0.0301569 8.03643 0.0147097 8.9262 0.0107509C9.26907 0.0107509 9.37793 0.142713 9.38249 0.508241C9.38727 1.25601 9.38727 2.00378 9.38249 2.75156C9.38249 3.13226 9.2821 3.2497 8.90795 3.26488C8.36561 3.28599 7.82263 3.28137 7.27834 3.28929C6.70993 3.29787 6.45571 3.48723 6.42051 4.05004C6.3788 4.70324 6.41073 5.36171 6.41073 6.05978H8.47252C9.28863 6.05978 9.28862 6.05978 9.28927 6.87661C9.28927 7.28371 9.30427 7.6908 9.28471 8.09658C9.26385 8.53798 9.21171 8.97741 9.1726 9.41618C8.74499 9.44257 8.31803 9.48216 7.88977 9.49337C7.41327 9.50723 6.93547 9.49667 6.39965 9.49667V9.89255C6.39965 12.0039 6.39965 14.1153 6.39965 16.2266C6.39965 16.8363 6.35533 16.8785 5.74781 16.8785H3.46571C2.96574 16.8785 2.87448 16.7881 2.87448 16.2847C2.87448 14.1852 2.87448 12.0857 2.87448 9.98624L2.87318 9.53824Z" fill="#2B2B2B"/>
</g>
<defs>
<clipPath id="clip0_1313_124">
<rect x="0.383301" width="9" height="16.875" fill="white"/>
</clipPath>
</defs>
</svg>
