<svg width="17" height="16" viewBox="0 0 17 16" fill="none" xmlns="http://www.w3.org/2000/svg">
<g clip-path="url(#clip0_1313_67)">
<path d="M7.91086 0H8.78575L8.96895 0.0257592C9.22178 0.0553359 9.47748 0.0744187 9.73222 0.116398C10.7714 0.289674 11.7648 0.671324 12.6527 1.2384C12.8587 1.36816 13.0543 1.51318 13.2604 1.65533L11.4047 4.06535C10.5071 3.3773 9.40109 3.01711 8.27044 3.04466C7.13979 3.07221 6.05261 3.48583 5.18958 4.21678C4.32654 4.94774 3.73963 5.95201 3.52636 7.0627C3.31309 8.1734 3.4863 9.32363 4.01724 10.3222C4.52042 11.2739 5.32114 12.0348 6.29719 12.4889C7.27324 12.943 8.37104 13.0653 9.4231 12.8372C11.4076 12.4231 12.7328 10.8241 13.0667 9.52081H8.39173V6.47251H16.177C16.2448 6.47251 16.3125 6.47251 16.3803 6.46774V8.47132C16.3707 8.5257 16.3593 8.58103 16.3516 8.63637C16.3011 8.98079 16.2725 9.32999 16.199 9.66965C15.7811 11.5902 14.7946 13.1645 13.2308 14.3447C11.2845 15.8197 9.09203 16.3082 6.70204 15.8101C4.79388 15.4113 3.23394 14.4086 2.0442 12.862C0.759045 11.1914 0.224757 9.28992 0.422253 7.19666C0.572353 5.53468 1.2569 3.96607 2.37335 2.72582C3.56715 1.34739 5.20353 0.427495 7.00162 0.12403C7.30215 0.0706011 7.60746 0.0410256 7.91086 0Z" fill="#2B2B2B"/>
</g>
<defs>
<clipPath id="clip0_1313_67">
<rect width="15.9952" height="16" fill="white" transform="translate(0.383301)"/>
</clipPath>
</defs>
</svg>
