<svg width="41" height="41" viewBox="0 0 41 41" fill="none" xmlns="http://www.w3.org/2000/svg">
<g clip-path="url(#clip0_1097_180)">
<path d="M2.19042 31.0585C3.04767 30.2298 3.88599 29.4488 4.69562 28.6392C5.17143 28.1051 5.8394 27.7812 6.55341 27.7383C7.26743 27.6955 7.96936 27.9372 8.50562 28.4106C9.65814 29.3631 10.8201 30.2298 11.9535 31.1632C12.2774 31.4204 12.4679 31.3919 12.7251 31.0871C14.1539 29.3726 15.5826 27.6771 17.0304 25.9722C17.2892 25.6233 17.627 25.3408 18.0162 25.148C18.4054 24.9552 18.8348 24.8576 19.2691 24.8632C19.7034 24.8688 20.1301 24.9774 20.5142 25.1801C20.8983 25.3829 21.2289 25.6739 21.4785 26.0293C22.5358 27.3533 23.5741 28.6868 24.6218 30.0203L24.9646 30.4394C24.9646 30.2108 24.9646 30.0774 24.9646 29.9441V24.372C24.9501 24.239 24.9501 24.1048 24.9646 23.9719C24.9768 23.7966 25.0577 23.6333 25.1897 23.5174C25.3217 23.4015 25.4941 23.3423 25.6694 23.3528C25.8426 23.3473 26.0114 23.4085 26.1408 23.5237C26.2702 23.6389 26.3504 23.7993 26.365 23.9719C26.3743 24.1051 26.3743 24.2388 26.365 24.372V37.3831C26.4043 37.8003 26.3513 38.221 26.2099 38.6155C26.0685 39.0099 25.842 39.3684 25.5467 39.6656C25.2513 39.9628 24.8943 40.1914 24.5007 40.3352C24.1071 40.479 23.6868 40.5346 23.2694 40.4978H3.87637C3.46243 40.5338 3.04566 40.479 2.65505 40.3374C2.26443 40.1958 1.90935 39.9707 1.61464 39.6778C1.31994 39.3849 1.09267 39.0312 0.948639 38.6415C0.804611 38.2518 0.747328 37.8353 0.780742 37.4212C0.780742 31.3887 0.780742 25.3562 0.780742 19.3237C0.747517 18.9104 0.804696 18.4949 0.948174 18.1059C1.09165 17.7169 1.31799 17.3638 1.61162 17.071C1.90525 16.7783 2.2591 16.553 2.64853 16.4107C3.03797 16.2685 3.45366 16.2126 3.86683 16.2471H12.5633C12.7122 16.2327 12.862 16.2327 13.0109 16.2471C13.1825 16.2672 13.3407 16.3496 13.4555 16.4786C13.5704 16.6077 13.6339 16.7744 13.6339 16.9472C13.6339 17.12 13.5704 17.2868 13.4555 17.4158C13.3407 17.5449 13.1825 17.6273 13.0109 17.6473C12.8618 17.657 12.7123 17.657 12.5633 17.6473H3.87637C3.64934 17.614 3.41759 17.634 3.19966 17.7058C2.98173 17.7776 2.78358 17.8993 2.62086 18.0611C2.45815 18.2229 2.33535 18.4204 2.26228 18.6379C2.18921 18.8554 2.16791 19.087 2.19996 19.3142V31.068L2.19042 31.0585ZM13.6204 39.0309H23.374C23.5971 39.0611 23.824 39.0391 24.0372 38.9668C24.2504 38.8945 24.4441 38.7739 24.6028 38.6142C24.7615 38.4546 24.881 38.2604 24.952 38.0468C25.0231 37.8332 25.0437 37.606 25.0123 37.3831C25.0123 35.9734 25.0123 34.5256 25.0123 33.1445C25.0062 32.9173 24.9297 32.6976 24.7932 32.5158C23.3454 30.6585 21.9357 28.8201 20.4402 26.9818C20.3229 26.7759 20.1531 26.6047 19.9482 26.4856C19.7432 26.3666 19.5106 26.3038 19.2736 26.3038C19.0365 26.3038 18.8036 26.3666 18.5987 26.4856C18.3938 26.6047 18.224 26.7759 18.1067 26.9818C16.6589 28.6963 15.208 30.4076 13.7539 32.1157C13.6152 32.3154 13.4348 32.4825 13.2251 32.6054C13.0154 32.7284 12.7815 32.8043 12.5396 32.8279C12.2976 32.8514 12.0535 32.8221 11.824 32.7419C11.5946 32.6617 11.3852 32.5325 11.2106 32.3634L7.67683 29.5726C7.54595 29.4332 7.38562 29.3248 7.20756 29.2552C7.02949 29.1856 6.83828 29.1567 6.64759 29.1703C6.4569 29.184 6.2716 29.24 6.1053 29.3343C5.93899 29.4287 5.79566 29.5589 5.68602 29.7155C4.6097 30.8013 3.52396 31.8872 2.46668 32.9921C2.31617 33.1614 2.22575 33.3757 2.20949 33.6017C2.20949 34.8685 2.20949 36.1258 2.20949 37.4117C2.17574 37.6384 2.19556 37.8698 2.26739 38.0874C2.33923 38.3051 2.46113 38.5029 2.62319 38.6649C2.78525 38.827 2.98296 38.9488 3.20059 39.0206C3.41823 39.0924 3.64968 39.1123 3.87637 39.0786L13.6204 39.0309Z" fill="white"/>
<path d="M27.8505 21.9241H18.1637C17.7456 21.9636 17.3241 21.9105 16.9289 21.7686C16.5337 21.6267 16.1745 21.3994 15.8771 21.1029C15.5797 20.8065 15.3514 20.4481 15.2083 20.0533C15.0651 19.6586 15.0107 19.2371 15.049 18.8189V3.57894C15.0122 3.16153 15.0677 2.74115 15.2115 2.34757C15.3553 1.95399 15.5838 1.59685 15.881 1.30147C16.1782 1.00608 16.537 0.779638 16.9314 0.638253C17.3259 0.496868 17.7465 0.443992 18.1637 0.483321H37.6327C38.0467 0.44735 38.4634 0.502099 38.854 0.643718C39.2447 0.785336 39.5997 1.01038 39.8944 1.30327C40.1891 1.59616 40.4164 1.94981 40.5604 2.33954C40.7045 2.72928 40.7618 3.14573 40.7283 3.55988V18.7999C40.7618 19.214 40.7045 19.6305 40.5604 20.0202C40.4164 20.4099 40.1891 20.7636 39.8944 21.0565C39.5997 21.3494 39.2447 21.5745 38.854 21.7161C38.4634 21.8577 38.0467 21.9124 37.6327 21.8764L27.8505 21.9241ZM27.8505 1.9216H18.1637C16.9826 1.9216 16.4491 2.45499 16.4491 3.63609V18.7427C16.4491 19.9333 16.973 20.4667 18.1446 20.4667H37.5755C38.7376 20.4667 39.271 19.9333 39.271 18.7808V3.65516C39.271 2.48359 38.7378 1.95015 37.5471 1.95015L27.8505 1.9216Z" fill="white"/>
<path d="M8.9258 21.8681C8.88642 22.5071 8.60471 23.1071 8.13826 23.5457C7.67181 23.9842 7.05574 24.2284 6.41548 24.2284C5.77522 24.2284 5.15915 23.9842 4.6927 23.5457C4.22625 23.1071 3.94455 22.5071 3.90516 21.8681C3.88404 21.5254 3.93323 21.182 4.04983 20.8591C4.16643 20.5362 4.34798 20.2406 4.58315 19.9904C4.81833 19.7403 5.10209 19.541 5.41721 19.4048C5.73234 19.2685 6.07217 19.1982 6.41548 19.1982C6.7588 19.1982 7.09839 19.2685 7.41352 19.4048C7.72864 19.541 8.01263 19.7403 8.24781 19.9904C8.48299 20.2406 8.6643 20.5362 8.7809 20.8591C8.89751 21.182 8.94692 21.5254 8.9258 21.8681ZM7.49678 21.8681C7.49476 21.6521 7.42831 21.4416 7.30606 21.2635C7.18381 21.0854 7.01124 20.9479 6.81042 20.8684C6.60959 20.7889 6.38971 20.7711 6.17871 20.8173C5.96771 20.8634 5.77514 20.9714 5.62585 21.1275C5.47655 21.2836 5.3772 21.4807 5.34046 21.6935C5.30372 21.9063 5.33121 22.1253 5.41954 22.3224C5.50787 22.5195 5.65302 22.6858 5.83634 22.8C6.01965 22.9142 6.23289 22.9712 6.44874 22.9636C6.59096 22.9599 6.73105 22.9281 6.86089 22.8699C6.99072 22.8118 7.10767 22.7285 7.20512 22.6248C7.30256 22.5212 7.3786 22.3993 7.42864 22.2661C7.47867 22.1329 7.50187 21.9912 7.49678 21.849V21.8681Z" fill="white"/>
<path d="M22.9266 11.1992C22.9266 9.77047 22.9266 8.34173 22.9266 6.92251C22.8939 6.64266 22.9441 6.35934 23.071 6.10779C23.1979 5.85624 23.396 5.64754 23.6405 5.50753C23.885 5.36753 24.1651 5.30241 24.4463 5.32028C24.7275 5.33815 24.9972 5.43822 25.222 5.60805L32.7183 9.88477C32.9833 9.99414 33.2098 10.1797 33.3692 10.4179C33.5286 10.6562 33.6136 10.9364 33.6136 11.223C33.6136 11.5096 33.5286 11.7899 33.3692 12.0281C33.2098 12.2664 32.9833 12.4519 32.7183 12.5613L25.1841 16.8666C24.9607 17.0249 24.6962 17.1157 24.4226 17.128C24.1489 17.1404 23.8776 17.0739 23.6407 16.9364C23.4039 16.7989 23.2115 16.5962 23.0866 16.3525C22.9617 16.1087 22.9095 15.8343 22.9361 15.5617C22.8695 14.1044 22.9266 12.6184 22.9266 11.1992ZM24.3744 15.6855L32.1849 11.2278L24.3744 6.76054V15.6855Z" fill="white"/>
</g>
<defs>
<clipPath id="clip0_1097_180">
<rect width="39.9383" height="39.9383" fill="white" transform="translate(0.761719 0.53125)"/>
</clipPath>
</defs>
</svg>
