<svg width="46" height="40" viewBox="0 0 46 40" fill="none" xmlns="http://www.w3.org/2000/svg">
<path d="M41.4511 4.23633C39.0635 1.84249 35.8985 0.381435 32.5279 0.117071C29.1572 -0.147294 25.8032 0.802467 23.0715 2.79479C20.2057 0.663205 16.6387 -0.30336 13.0887 0.089743C9.53876 0.482846 6.26961 2.20642 3.93958 4.91337C1.60955 7.62032 0.391708 11.1096 0.531309 14.6785C0.67091 18.2474 2.15758 21.6309 4.69194 24.1475L18.6793 38.1575C19.8506 39.3102 21.4281 39.9563 23.0715 39.9563C24.7149 39.9563 26.2924 39.3102 27.4637 38.1575L41.4511 24.1475C44.081 21.5016 45.5571 17.9225 45.5571 14.1919C45.5571 10.4613 44.081 6.8823 41.4511 4.23633Z" fill="#D38D00"/>
</svg>
