<svg width="19" height="18" viewBox="0 0 19 18" fill="none" xmlns="http://www.w3.org/2000/svg">
<g clip-path="url(#clip0_1313_16)">
<path d="M9.39402 -0.000746377C10.8564 -0.000746377 12.3188 -0.000746377 13.7812 -0.000746377C16.0412 -0.000746377 17.8479 1.46508 18.3074 3.67957C18.3626 3.98365 18.3869 4.29252 18.38 4.60148C18.3852 7.53502 18.3861 10.4686 18.3828 13.4021C18.3828 15.6548 16.8962 17.4806 14.6958 17.9233C14.4092 17.9755 14.1181 17.9994 13.8268 17.9948C10.8645 18 7.90218 18 4.93986 17.9948C2.71644 17.9919 0.876615 16.476 0.451391 14.3015C0.402245 14.0249 0.379456 13.7443 0.383332 13.4634C0.378082 10.483 0.378082 7.50183 0.383332 4.51992C0.380713 3.46176 0.749594 2.43625 1.42565 1.62222C2.1017 0.808199 3.04204 0.25731 4.08266 0.0656261C4.37813 0.0162603 4.67746 -0.00614381 4.97698 -0.00130941C6.4512 -0.000746926 7.92092 -0.000746377 9.39402 -0.000746377ZM16.8641 8.9956C16.8641 7.44033 16.8799 5.88451 16.8596 4.32699C16.8399 2.85104 15.5423 1.53033 14.0726 1.52077C10.9524 1.50014 7.83243 1.50014 4.71263 1.52077C3.22041 1.53033 1.91324 2.84429 1.9048 4.33318C1.88605 7.44558 1.88605 10.5565 1.9048 13.6659C1.91324 15.1402 3.22266 16.4625 4.69125 16.4721C7.81068 16.4927 10.9307 16.4927 14.0512 16.4721C15.544 16.4625 16.8399 15.1497 16.8596 13.6597C16.8816 12.1067 16.8641 10.5509 16.8641 8.9956Z" fill="#2B2B2B"/>
<path d="M9.39075 4.5C10.2807 4.50134 11.1503 4.76657 11.8896 5.26215C12.6288 5.75774 13.2045 6.46142 13.5438 7.2842C13.8832 8.10699 13.9709 9.01192 13.7959 9.88456C13.6209 10.7572 13.1911 11.5584 12.5608 12.1867C11.9305 12.8151 11.128 13.2424 10.2549 13.4146C9.38173 13.5869 8.4771 13.4963 7.65541 13.1544C6.83371 12.8125 6.13186 12.2346 5.6386 11.4938C5.14534 10.753 4.88284 9.88256 4.88428 8.99255C4.8883 7.79985 5.36483 6.65736 6.20948 5.81531C7.05414 4.97326 8.19809 4.50029 9.39075 4.5ZM9.39075 11.9872C9.98175 11.9855 10.559 11.8087 11.0495 11.4789C11.5399 11.1492 11.9216 10.6815 12.1463 10.1348C12.371 9.5882 12.4285 8.98721 12.3117 8.40786C12.1948 7.82852 11.9088 7.29683 11.4898 6.88002C11.0708 6.46321 10.5377 6.18 9.95773 6.0662C9.37779 5.9524 8.77713 6.01312 8.2317 6.24067C7.68626 6.46823 7.22055 6.85241 6.89343 7.34464C6.56632 7.83686 6.3925 8.41503 6.39394 9.00605C6.39129 9.3998 6.46717 9.79013 6.61712 10.1542C6.76708 10.5183 6.98811 10.8489 7.26729 11.1265C7.54647 11.4042 7.87821 11.6234 8.2431 11.7714C8.60799 11.9194 8.99872 11.9931 9.39244 11.9883L9.39075 11.9872Z" fill="#2B2B2B"/>
<path d="M14.2628 5.23476C13.621 5.23476 13.1451 4.76003 13.148 4.11767C13.148 3.49163 13.6592 2.98427 14.2729 2.99833C14.5666 3.00562 14.8463 3.12562 15.0539 3.33348C15.2616 3.54135 15.3813 3.82113 15.3883 4.11486C15.3889 4.26259 15.3602 4.40898 15.3039 4.54553C15.2475 4.68208 15.1645 4.80605 15.0598 4.91026C14.9551 5.01446 14.8307 5.09681 14.6938 5.15251C14.557 5.20822 14.4105 5.23618 14.2628 5.23476Z" fill="#2B2B2B"/>
</g>
<defs>
<clipPath id="clip0_1313_16">
<rect width="18" height="18" fill="white" transform="translate(0.383301)"/>
</clipPath>
</defs>
</svg>
