<svg width="160" height="32" viewBox="0 0 160 32" fill="none" xmlns="http://www.w3.org/2000/svg">
<g clip-path="url(#clip0_115_738)">
<path d="M81.0861 21.7133C79.9733 19.7077 80.0905 17.7813 81.7995 15.9076C84.5148 12.9045 88.0393 11.4478 92.0484 11.1575C93.0334 11.0783 94.0982 11.2947 94.5454 12.3134C94.9926 13.332 94.5028 14.2662 93.816 14.9523C93.2076 15.5776 92.4849 16.0827 91.6864 16.4407C90.3234 17.0266 89.7537 16.6835 89.3384 15.174C87.3404 16.0684 85.5333 17.3332 84.0143 18.9002L84.1315 19.2169C84.4472 19.2146 84.7622 19.1881 85.0738 19.1377C85.7021 18.9847 86.3197 18.7735 86.9426 18.6099C88.0074 18.3144 88.5824 18.6099 89.0722 19.6075C89.5141 20.4994 88.9924 21.0483 88.3428 21.4283C86.8893 22.2675 85.372 23.0117 83.9185 23.8351C83.2081 24.2542 82.5427 24.744 81.9326 25.2971C80.953 26.1626 81.2245 27.2393 82.5076 27.5929C83.3763 27.8532 84.2916 27.9238 85.1905 27.7999C86.0893 27.676 86.9505 27.3605 87.7146 26.8751C89.4023 25.8196 90.9623 24.5423 92.6074 23.4023C93.0321 23.1751 93.4756 22.9844 93.9331 22.8323C94.1314 22.7657 94.3055 22.6427 94.4336 22.4786C96.7655 18.2563 99.0886 14.034 101.403 9.81165C101.483 9.66915 101.541 9.51081 101.664 9.25219C100.508 9.36303 99.4649 9.47914 98.4213 9.55831C97.9794 9.5998 97.534 9.58561 97.0956 9.51609C95.7273 9.25747 95.4984 8.59245 96.2065 7.40492C96.645 6.59941 97.3145 5.94084 98.1304 5.51246C98.9463 5.08407 99.8721 4.90511 100.791 4.99819C101.76 5.05097 102.739 4.99819 103.714 4.99819C104.006 5.03083 104.302 4.97526 104.562 4.83874C104.822 4.70221 105.035 4.49108 105.172 4.23289C105.87 3.17731 106.615 2.09006 107.403 1.06615C107.751 0.583964 108.253 0.232152 108.828 0.0674541C109.403 -0.0972441 110.017 -0.0652259 110.571 0.158344C111.428 0.411684 111.636 0.886697 111.226 1.67838C110.816 2.47007 110.262 3.29343 109.778 4.10095C109.692 4.24345 109.634 4.40179 109.48 4.72902C110.262 4.72902 110.928 4.76069 111.609 4.72902C112.956 4.66568 113.632 5.59987 114.207 6.54462C114.255 6.76697 114.247 6.99769 114.183 7.21603C114.119 7.43437 114.001 7.63349 113.84 7.79549C113.389 8.12113 112.857 8.31826 112.301 8.3655C110.63 8.57134 108.947 8.65579 107.281 8.89329C107.059 8.92395 106.845 8.99864 106.653 9.1129C106.461 9.22716 106.294 9.37865 106.163 9.55831C103.501 14.2398 100.902 18.9319 98.3681 23.6662C97.9404 24.5948 97.6757 25.589 97.5855 26.606C97.4736 27.4082 97.9209 27.7566 98.7248 27.5666C99.331 27.4356 99.9047 27.1862 100.413 26.8329C101.871 25.7404 103.272 24.5634 104.672 23.4234C105.561 22.7109 105.859 22.8428 106.157 23.9512C106.395 24.8587 106.718 25.7422 107.121 26.5901C107.237 26.7718 107.393 26.9251 107.578 27.0384C107.762 27.1518 107.97 27.2223 108.186 27.2446C110.174 27.3434 112.151 26.9017 113.904 25.9673C114.266 25.6912 114.586 25.3661 114.857 25.0015C114.532 24.7013 114.164 24.4505 113.765 24.2573C112.12 23.777 110.438 23.4234 108.798 22.9325C105.226 21.877 104.411 19.3277 106.668 16.3563C107.742 15.0268 109.096 13.946 110.635 13.1895C113.119 11.7593 115.851 10.8016 118.69 10.3658C119.482 10.2629 120.284 10.2629 121.075 10.3658C123.274 10.6667 124.147 12.5614 122.886 14.377C122.43 14.999 121.831 15.5038 121.138 15.8491C120.445 16.1943 119.679 16.37 118.903 16.3615C117.769 16.4143 117.306 15.6332 117.62 14.319C117.178 14.3929 116.784 14.4298 116.401 14.5195C113.976 15.1102 111.753 16.3287 109.959 18.0505C109.762 18.2918 109.599 18.558 109.474 18.8422C109.745 19.0369 110.041 19.1965 110.353 19.3172C112.035 19.7552 113.728 20.1405 115.416 20.568C115.873 20.6998 116.315 20.8766 116.736 21.0958C119.627 22.505 120.287 25.0965 118.041 27.3607C116.59 28.8614 114.803 30.0012 112.824 30.6872C110.845 31.3732 108.73 31.5862 106.652 31.3086C105.907 31.2847 105.191 31.0185 104.614 30.5511C104.037 30.0838 103.63 29.4412 103.458 28.7224C102.601 29.3135 101.823 29.8941 101.004 30.4061C100.386 30.8407 99.6851 31.1447 98.9441 31.299C98.2031 31.4534 97.438 31.4549 96.6963 31.3033C94.6945 30.8336 93.5019 29.6408 93.2942 27.3871C92.9056 27.6616 92.6021 27.8674 92.3093 28.0838C90.2276 29.6249 88.0021 30.8864 85.3879 31.298C83.6842 31.5619 81.9379 31.6094 80.3247 30.9075C79.3036 30.3501 78.3233 29.7223 77.3911 29.0285C76.9386 29.3399 76.2944 29.7938 75.6342 30.2266C74.367 31.0605 72.9721 31.5883 71.4494 31.3139C69.9267 31.0394 68.5425 30.3163 67.9142 28.5588C67.6001 28.7858 67.3499 28.9546 67.105 29.1394C65.6834 30.195 64.2566 31.2505 62.3772 31.3561C59.1827 31.4933 57.266 29.1552 57.9954 26.0782C58.6077 23.5289 59.8908 21.2911 61.3017 19.1113L63.3941 15.8865L63.2237 15.7018C62.8013 15.9733 62.3943 16.2675 62.0045 16.5832C57.9288 20.2205 54.2134 24.236 50.909 28.5746C50.7553 28.7538 50.613 28.9425 50.4831 29.1394C49.184 31.3614 47.4963 30.6436 46.1706 29.5352C44.4785 30.196 42.7509 30.7634 40.9955 31.2347C39.2176 31.6399 37.3563 31.4849 35.6714 30.7914C34.1274 30.1475 33.0094 29.1024 32.7751 27.3977C32.6722 26.5929 32.7981 25.7756 33.1386 25.038C33.4792 24.3003 34.0208 23.6717 34.7024 23.2228C35.3573 22.7373 36.0867 22.3573 36.7895 21.9297C36.1843 20.9944 35.9146 19.8842 36.0237 18.7783C36.1329 17.6724 36.6146 16.6351 37.3911 15.8337C40.0642 13.0391 43.7088 11.3562 47.5868 11.1259C48.5398 11.0467 49.5993 11.2261 50.0572 12.1814C50.515 13.1367 50.1211 14.1765 49.4076 14.9312C48.8488 15.5233 48.1846 16.0082 47.4484 16.3615C46.0534 17.016 45.3986 16.6782 44.9247 15.1529C42.9352 16.0414 41.1463 17.3176 39.6645 18.9055L39.7923 19.2433C40.2235 19.1747 40.6601 19.1324 41.0861 19.0269C41.6608 18.7995 42.2589 18.6349 42.8696 18.536C43.4037 18.525 43.9225 18.7134 44.3231 19.0638C45.1803 19.9769 45.0951 20.7053 44.0037 21.3756C42.5821 22.257 41.0488 22.9589 39.5953 23.7981C38.8993 24.1863 38.2554 24.6598 37.6786 25.2073C37.4934 25.3742 37.346 25.5781 37.2459 25.8055C37.1459 26.0329 37.0956 26.2787 37.0983 26.5268C37.1955 26.7739 37.3466 26.9967 37.5408 27.1792C37.735 27.3617 37.9675 27.4994 38.2217 27.5824C39.0745 27.841 39.9738 27.9126 40.8573 27.7923C41.7408 27.672 42.5873 27.3627 43.3381 26.8857C44.6958 26.0676 45.9523 25.0807 47.2673 24.1834C47.9861 23.6926 48.7474 23.2545 49.4609 22.7531C49.6802 22.5657 49.8609 22.3381 49.9933 22.0828C51.6917 19.2327 53.4007 16.3879 55.0672 13.522C55.4314 12.8118 55.9856 12.2146 56.6692 11.7958C57.3528 11.3769 58.1395 11.1524 58.9431 11.147C60.0079 11.11 60.4605 11.6273 60.0558 12.6301C59.6512 13.6329 59.1507 14.5195 58.645 15.5646C59.4544 14.7624 60.3171 14.0148 61.2271 13.3267C62.4114 12.5603 63.658 11.893 64.954 11.3317C65.5399 11.1283 66.1687 11.0774 66.7802 11.1839C68.3774 11.3792 69.224 12.6987 68.5904 14.1712C68.0527 15.3426 67.4354 16.4764 66.7429 17.5649C65.3427 19.8766 63.8839 22.1514 62.4836 24.4631C62.1834 25.0018 61.9544 25.5765 61.8021 26.1732C61.5359 27.0757 61.9672 27.6457 62.9202 27.5454C63.5048 27.4951 64.0662 27.2951 64.5494 26.9649C65.7846 26.0201 66.9452 24.9751 68.1219 23.9512C68.2882 23.7856 68.4155 23.5855 68.4945 23.3653C70.3154 18.7524 72.9774 14.5882 75.5064 10.35L76.1559 9.25747C75.4925 9.35929 74.8244 9.42799 74.1541 9.46331C73.1029 9.5229 72.0483 9.47337 71.0075 9.31553C70.0918 9.12552 69.9906 8.51328 70.4751 7.69521C71.5399 5.83738 73.068 4.88208 75.2668 5.02458C76.2677 5.08792 77.2793 5.02458 78.2803 5.02458C78.5436 5.04542 78.8075 4.99022 79.0399 4.86566C79.2723 4.74109 79.4633 4.55249 79.59 4.32262C80.3886 3.12981 81.2937 2.00034 82.0817 0.80225C82.662 -0.0844398 84.5521 -0.195276 85.4199 0.306126C86.0428 0.670302 85.8884 1.18226 85.6169 1.67838C85.3453 2.17451 85.0312 2.63896 84.7384 3.16676C84.4456 3.69455 84.1581 4.10095 83.7481 4.75013C84.6159 4.75013 85.3134 4.75013 86.0002 4.75013C87.3472 4.69207 88.0021 5.65265 88.6143 6.57101C88.6921 6.69114 88.7403 6.82777 88.7548 6.96979C88.7693 7.11182 88.7499 7.25524 88.698 7.38841C88.6461 7.52159 88.5633 7.64076 88.4563 7.73625C88.3492 7.83174 88.221 7.90086 88.0819 7.93799C87.3665 8.19761 86.6234 8.37471 85.8671 8.46578C84.4615 8.63995 83.04 8.68745 81.6398 8.8669C81.4315 8.8921 81.2302 8.95774 81.0475 9.06007C80.8648 9.1624 80.7042 9.29943 80.5749 9.46331C77.8384 14.3894 75.1373 19.3312 72.4717 24.289C72.1725 24.9883 71.9926 25.7321 71.9392 26.4899C71.8274 27.2552 72.2853 27.6932 73.0467 27.5454C73.6104 27.4195 74.151 27.2076 74.6492 26.9174C75.2158 26.5969 75.7506 26.224 76.2464 25.8037C77.8543 24.4684 79.4516 23.0962 81.0861 21.7133Z" fill="#D38D00"/>
<path d="M17.3774 23.8456C18.2239 22.1092 19.0279 20.4519 19.8904 18.6891C18.9161 19.0058 18.4316 18.5202 18.0802 17.7707C17.7288 17.0213 18.1281 16.4249 18.6658 15.9182C19.8584 14.7834 21.0351 13.6276 22.2649 12.535C22.7183 12.155 23.2261 11.8437 23.7717 11.6114C24.1579 11.4146 24.5982 11.3473 25.0264 11.4196C25.4545 11.4919 25.8475 11.7 26.1462 12.0125C26.8224 12.6406 26.7159 13.4059 26.3751 14.1237C25.3103 16.4038 24.171 18.6627 23.0742 20.9375C22.2685 22.5983 21.4752 24.2679 20.6943 25.9462C20.5486 26.3494 20.4242 26.7599 20.3216 27.176C20.652 27.0203 20.9721 26.844 21.28 26.6482C25.427 23.4624 28.8533 19.4491 31.3372 14.8679C31.6024 14.4607 31.7562 13.992 31.7832 13.508C31.8103 13.024 31.7098 12.5413 31.4916 12.1075C31.3529 11.8454 31.3049 11.5455 31.355 11.2537C31.405 10.9619 31.5502 10.6945 31.7684 10.4925C32.1444 10.0754 32.633 9.77368 33.1764 9.6231C33.7199 9.47251 34.2955 9.47933 34.8351 9.64275C35.3201 9.80243 35.7328 10.1265 36.0006 10.558C36.2684 10.9895 36.3742 11.5008 36.2993 12.002C36.177 13.2181 35.8475 14.4049 35.3249 15.5118C32.3067 21.4266 27.7921 26.464 22.2223 30.1316C21.5034 30.5881 20.7239 30.9433 19.9064 31.1872C17.9418 31.8206 16.2594 30.5961 16.1795 28.5482C16.1795 28.2052 16.1795 27.8568 16.1795 27.3238C15.8015 27.5824 15.5406 27.7407 15.2957 27.9254C13.2299 29.5088 11.0364 30.7544 8.41163 31.2083C6.67415 31.563 4.87256 31.45 3.19402 30.8811C1.59679 30.2952 0.345625 29.3505 0.0634482 27.5877C-0.0874175 26.7419 0.0164462 25.8709 0.362064 25.0833C0.707681 24.2958 1.27973 23.6266 2.00674 23.1595C2.66161 22.695 3.34309 22.3309 4.01393 21.9192C2.23036 18.9372 3.61995 16.3668 5.97852 14.5301C8.37615 12.6394 11.2651 11.4609 14.3107 11.1311C14.4268 11.1119 14.5444 11.103 14.6621 11.1047C15.6897 11.1047 16.7918 11.1733 17.3242 12.1603C17.8566 13.1473 17.2816 14.2398 16.5522 15.0421C16.0714 15.5559 15.497 15.9749 14.8591 16.2771C13.4056 16.9791 12.7614 16.6993 12.1598 15.1529C10.1609 16.0305 8.36643 17.3081 6.88894 18.9055L7.0114 19.2222C7.41747 19.186 7.82103 19.1261 8.21996 19.0427C8.75237 18.9108 9.28478 18.7102 9.81719 18.5572C10.8394 18.2669 11.3346 18.4885 11.8563 19.4227C11.9518 19.5456 12.021 19.6864 12.0596 19.8366C12.0983 19.9869 12.1057 20.1433 12.0812 20.2965C12.0568 20.4496 12.0011 20.5962 11.9176 20.7273C11.8341 20.8584 11.7245 20.9712 11.5954 21.0589C11.063 21.4389 10.4934 21.7292 9.94497 22.0617C8.28385 23.0698 6.61209 24.0567 4.97759 25.1018C4.48245 25.4184 3.96601 25.9462 4.30675 26.5585C4.5989 27.0425 5.05878 27.4046 5.60051 27.5771C6.48892 27.8184 7.41991 27.8636 8.32785 27.7095C9.23579 27.5554 10.0986 27.2057 10.8554 26.6851C12.5059 25.6296 14.0499 24.3734 15.6471 23.2123C16.6267 22.5156 16.9408 22.6106 17.3774 23.8456Z" fill="#D38D00"/>
<path d="M147.324 9.28913C146.014 9.39469 144.821 9.50025 143.623 9.56886C143.266 9.59476 142.906 9.56267 142.559 9.47386C141.329 9.13607 141.164 8.5555 141.803 7.48936C142.251 6.65634 142.941 5.97601 143.784 5.53654C144.627 5.09707 145.584 4.91871 146.53 5.02457C147.387 5.07735 148.25 4.98235 149.102 5.05096C149.479 5.10289 149.864 5.03609 150.201 4.85998C150.538 4.68386 150.811 4.4073 150.981 4.06927C151.679 2.95035 152.578 1.95811 153.281 0.844466C153.867 -0.0422239 155.725 -0.15306 156.529 0.274451C157.147 0.601682 157.141 1.10308 156.854 1.6256C156.444 2.36978 155.986 3.08758 155.549 3.82121C155.406 4.05872 155.272 4.30678 155.017 4.73429C155.858 4.73429 156.524 4.73429 157.189 4.73429C158.536 4.66568 159.186 5.61042 159.814 6.52878C159.888 6.6335 159.937 6.75315 159.959 6.87913C159.981 7.00511 159.974 7.13431 159.94 7.25743C159.905 7.38055 159.843 7.49454 159.759 7.59122C159.675 7.6879 159.57 7.76487 159.452 7.81659C158.997 8.08345 158.494 8.26253 157.972 8.34438C156.247 8.5555 154.506 8.67161 152.781 8.87217C152.598 8.88827 152.419 8.94044 152.257 9.02563C152.094 9.11082 151.95 9.22731 151.833 9.3683C148.798 14.3612 145.748 19.3488 143.49 24.7481C143.282 25.3847 143.167 26.0478 143.15 26.7168C143.119 26.842 143.123 26.9731 143.161 27.0962C143.199 27.2193 143.271 27.3298 143.367 27.4159C143.464 27.502 143.583 27.5605 143.71 27.5852C143.838 27.6098 143.97 27.5998 144.092 27.556C144.783 27.4295 145.443 27.1714 146.035 26.796C147.462 25.7404 148.804 24.6056 150.177 23.492C151.205 22.6634 151.514 22.7689 151.775 24.0515C152.035 25.334 151.775 26.3685 150.8 27.1601C149.336 28.3371 147.851 29.4983 146.291 30.5486C145.742 30.9294 145.119 31.192 144.461 31.3193C143.804 31.4465 143.126 31.4357 142.473 31.2875C139.678 30.6752 138.432 28.6221 139.077 25.6243C139.721 22.6264 141.126 20.0191 142.601 17.4066C144.001 14.9312 145.487 12.4981 146.93 10.0491C147.068 9.8222 147.169 9.58997 147.324 9.28913Z" fill="#D38D00"/>
<path d="M140.136 14.9787C139.96 15.8323 139.727 16.6734 139.438 17.4963C137.17 22.7742 133.699 27.0968 128.636 30.0208C127.409 30.8076 125.957 31.178 124.499 31.0764C123.571 31.0373 122.689 30.6641 122.019 30.0267C121.348 29.3894 120.935 28.5316 120.857 27.6141C120.64 25.7105 120.96 23.7844 121.784 22.0511C123.677 17.4034 127.328 13.6737 131.958 11.6589C133.555 10.9464 135.195 10.6878 136.707 11.9756C136.968 12.1122 137.259 12.1812 137.554 12.1762C139.231 12.4137 140.024 13.2898 140.136 14.9787ZM133.784 14.5195C133.238 14.7702 132.705 15.0485 132.187 15.3535C129.059 17.3579 126.62 20.2568 125.191 23.6662C124.877 24.4564 124.697 25.2929 124.659 26.1415C124.589 27.1285 125.133 27.4979 126.075 27.1443C126.766 26.8773 127.419 26.5225 128.018 26.0887C130.781 24.1412 132.666 21.4494 134.333 18.5941C134.693 18.0202 134.977 17.4029 135.179 16.7574C135.271 16.3283 135.199 15.8807 134.977 15.5012C134.631 15.1171 134.229 14.7862 133.784 14.5195Z" fill="#D38D00"/>
<path d="M157.226 28.2263C157.156 29.1296 156.79 29.9855 156.184 30.6631C155.577 31.3407 154.763 31.8029 153.867 31.9789C153.599 32.0382 153.322 32.0347 153.056 31.9685C152.791 31.9023 152.545 31.7753 152.338 31.5978C152.131 31.4202 151.968 31.197 151.864 30.946C151.76 30.6951 151.716 30.4234 151.737 30.1527C151.71 28.4743 153.334 26.6007 154.985 26.379C156.332 26.1943 157.237 26.9174 157.226 28.2263Z" fill="#D38D00"/>
</g>
<defs>
<clipPath id="clip0_115_738">
<rect width="160" height="32" fill="white"/>
</clipPath>
</defs>
</svg>
