<svg width="30" height="31" viewBox="0 0 30 31" fill="none" xmlns="http://www.w3.org/2000/svg">
<g clip-path="url(#clip0_1097_310)">
<path d="M0 29.8548C0.078125 29.6903 0.164844 29.5297 0.234375 29.3613C2.86615 22.8715 5.49635 16.3817 8.125 9.89185C8.58203 8.76469 9.2039 8.43806 10.4016 8.70908C11.5344 8.966 12.5305 9.52605 13.4727 10.1746C16.3453 12.1524 18.7594 14.5845 20.6351 17.5375C21.1976 18.4219 21.6664 19.354 21.8219 20.4114C21.9602 21.3561 21.6258 21.9475 20.7469 22.3039C14.1469 24.9817 7.54635 27.6616 0.945311 30.3435C0.842402 30.3905 0.742007 30.4428 0.644531 30.5002H0V29.8548ZM20.9141 20.7091C20.9086 20.6668 20.9008 20.5689 20.8828 20.4741C20.7164 19.5851 20.3047 18.7979 19.8359 18.0412C18.3742 15.6811 16.4852 13.7041 14.3328 11.9715C13.3031 11.1428 12.2188 10.3908 10.9828 9.90124C10.5657 9.74135 10.1307 9.63298 9.6875 9.57853C9.31406 9.52997 9.10626 9.7626 9.08985 10.1386C9.08529 10.2654 9.09524 10.3924 9.11953 10.5169C9.28515 11.3958 9.69766 12.172 10.1555 12.9232C11.2672 14.7482 12.6742 16.3281 14.2344 17.7741C15.5352 18.9796 16.9234 20.0683 18.5211 20.861C19.0719 21.1344 19.6391 21.3811 20.268 21.4023C20.7148 21.414 20.9117 21.2088 20.9141 20.7091ZM8.40469 11.7279C8.40469 11.7349 8.37734 11.7749 8.36016 11.8164C7.77656 13.2537 7.18828 14.6895 6.61875 16.1315C6.60339 16.1932 6.60067 16.2573 6.61074 16.3201C6.62081 16.3828 6.64347 16.4428 6.67734 16.4965C8.54977 19.4322 11.0344 21.9262 13.9602 23.807C14.1078 23.9025 14.2328 23.9464 14.4141 23.8712C15.8109 23.2939 17.2125 22.7292 18.6117 22.1582C18.6607 22.1361 18.7078 22.1099 18.7523 22.0798C14.2352 19.7039 10.7859 16.2532 8.40469 11.7279ZM6.12343 17.4012C6.09667 17.4347 6.07239 17.47 6.05078 17.507C5.5039 18.8535 4.95704 20.1984 4.42032 21.5495C4.40736 21.6102 4.40764 21.673 4.42112 21.7336C4.4346 21.7941 4.46098 21.8511 4.49844 21.9005C5.70827 23.4238 7.08487 24.806 8.60235 26.0214C8.74142 26.1334 8.8461 26.1271 8.99298 26.066C9.89376 25.6947 10.7984 25.3328 11.7008 24.9694C12.1578 24.7838 12.6133 24.595 13.107 24.3913C10.3595 22.5248 7.98973 20.1529 6.12343 17.4012ZM1.31953 29.1811L7.68593 26.5963L3.90156 22.8106L1.31953 29.1811Z" fill="#D38D00"/>
<path d="M29.9999 4.57897C29.839 4.69568 29.6929 4.84529 29.5147 4.92362C29.0249 5.13824 28.5163 5.31526 28.0265 5.5291C27.9669 5.56003 27.914 5.60246 27.8708 5.65394C27.8277 5.70542 27.7951 5.76495 27.7749 5.8291C27.628 6.3774 27.5054 6.9257 27.3843 7.48027C27.3358 7.69646 27.246 7.87192 27.0163 7.92283C26.7866 7.97375 26.61 7.86174 26.464 7.68001C26.1218 7.25312 25.7608 6.84111 25.4265 6.40952C25.3775 6.33842 25.3089 6.28314 25.2292 6.25046C25.1494 6.21777 25.0619 6.20908 24.9772 6.22544C24.453 6.28106 23.928 6.31865 23.4038 6.37427C23.1694 6.39933 22.9483 6.39542 22.8038 6.17531C22.6475 5.94033 22.7468 5.73354 22.8819 5.52597C23.1796 5.06774 23.4788 4.60952 23.7546 4.13798C23.8151 4.01631 23.8257 3.87576 23.7843 3.74633C23.5921 3.24581 23.3741 2.75547 23.1593 2.26356C23.0632 2.04189 22.9796 1.82179 23.1593 1.60482C23.3514 1.3761 23.5897 1.43328 23.8327 1.49829C24.3226 1.6291 24.8163 1.74424 25.303 1.88523C25.5108 1.94476 25.6585 1.92283 25.8249 1.76696C26.2233 1.39255 26.6476 1.0479 27.0561 0.683668C27.2241 0.534059 27.428 0.434583 27.6108 0.559909C27.7602 0.671198 27.8612 0.835823 27.8929 1.0197C27.9585 1.58132 27.9827 2.14842 28.0038 2.71474C28.0005 2.79583 28.0209 2.87611 28.0626 2.9457C28.1042 3.01529 28.1653 3.07115 28.2382 3.10638C28.7069 3.3727 29.1647 3.64764 29.6171 3.93589C29.7593 4.02675 29.8686 4.17087 29.9936 4.28837L29.9999 4.57897ZM26.6608 6.4385C26.7546 6.02805 26.8444 5.68967 26.9061 5.34659C26.922 5.20559 26.9799 5.07266 27.0723 4.96519C27.1647 4.85772 27.2873 4.78072 27.4241 4.74424C27.7624 4.63301 28.089 4.48419 28.4647 4.33458C28.189 4.16618 27.9702 3.99542 27.7241 3.88967C27.2343 3.67975 27.0507 3.32022 27.0741 2.80638C27.0858 2.54476 27.046 2.2808 27.0265 1.96043C26.7139 2.22753 26.4522 2.43041 26.2218 2.66539C25.9632 2.93014 25.6889 2.97871 25.3468 2.86513C25.0343 2.76174 24.7054 2.69594 24.3264 2.59881C24.4772 2.95443 24.5788 3.25051 24.7249 3.52309C24.9179 3.88654 24.8874 4.19907 24.6366 4.52335C24.446 4.76931 24.2983 5.04816 24.1007 5.35991C24.5366 5.32623 24.8975 5.31213 25.2538 5.26513C25.3831 5.24102 25.5167 5.25582 25.6376 5.30767C25.7586 5.35953 25.8615 5.44611 25.9335 5.55651C26.1499 5.84241 26.389 6.11108 26.6608 6.4385Z" fill="#D38D00"/>
<path d="M26.2376 13.7374C26.8879 13.7485 27.5344 13.6374 28.1439 13.41C28.4642 13.2972 28.7689 13.1429 29.0814 12.9988C29.3939 12.8547 29.6556 12.9071 29.7845 13.1633C29.9134 13.4194 29.8142 13.6834 29.504 13.8306C28.3197 14.3946 27.1048 14.8231 25.7587 14.6586C25.6835 14.6471 25.6067 14.6623 25.5415 14.7017C24.9947 15.1246 24.3517 15.1818 23.6954 15.2617C23.1093 15.3445 22.5312 15.4768 21.9673 15.6573C21.7267 15.7293 21.5158 15.9189 21.3079 16.0771C21.0814 16.2487 20.8306 16.2667 20.647 16.0904C20.4634 15.9142 20.4462 15.6205 20.6517 15.4105C21.1447 14.899 21.7806 14.6429 22.454 14.5019C23.0056 14.3868 23.5728 14.3453 24.1322 14.2669C24.2532 14.2497 24.3736 14.2215 24.5408 14.1886C24.1376 13.8549 23.8759 13.4899 23.8415 13.0011C23.7993 12.4066 24.0665 11.9633 24.5618 11.7988C25.1259 11.6124 25.7283 11.8051 26.0361 12.2797C26.2667 12.6247 26.3551 13.0457 26.2829 13.4547C26.2689 13.5385 26.2556 13.6231 26.2376 13.7374ZM25.222 13.5447L25.3587 13.4899C25.3376 13.2816 25.3439 13.0646 25.2861 12.8672C25.2758 12.8262 25.2559 12.7882 25.228 12.7564C25.2001 12.7247 25.165 12.7001 25.1257 12.6848C25.0863 12.6695 25.0439 12.6638 25.002 12.6683C24.96 12.6727 24.9197 12.6872 24.8845 12.7105C24.8126 12.7544 24.7689 12.9722 24.8142 13.0536C24.9142 13.233 25.0783 13.3802 25.2197 13.5424L25.222 13.5447Z" fill="#D38D00"/>
<path d="M19.3139 7.68259C20.7405 7.94421 21.1631 8.23089 21.1709 8.92646C21.1787 9.6463 20.6639 10.356 20.0342 10.493C19.2873 10.6567 18.728 10.2729 18.292 9.27111C17.9767 9.78148 17.7727 10.353 17.6936 10.9481C17.6748 11.0735 17.6655 11.2011 17.6428 11.3257C17.5936 11.5865 17.3936 11.7486 17.1514 11.7299C16.9092 11.7111 16.6967 11.509 16.7241 11.2599C16.8553 10.0458 17.11 8.88259 18.1459 8.06719C18.23 7.99157 18.2887 7.89169 18.3139 7.78129C18.6201 6.54369 19.3256 5.52933 20.1069 4.55883C20.1455 4.51084 20.1935 4.47127 20.2479 4.44256C20.3024 4.41386 20.3621 4.39663 20.4234 4.39194C20.4847 4.38724 20.5464 4.39518 20.6045 4.41526C20.6627 4.43534 20.7161 4.46714 20.7616 4.5087C20.9631 4.68259 20.9881 4.95518 20.792 5.18781C20.2585 5.81194 19.8184 6.51066 19.4858 7.26197C19.4287 7.39277 19.3748 7.52672 19.3139 7.68259ZM19.1623 8.63977C19.1811 9.01575 19.2701 9.30322 19.5295 9.49199C19.6178 9.557 19.8342 9.58599 19.8889 9.53037C20.0353 9.37089 20.1498 9.18477 20.2264 8.98207C20.2412 8.94369 20.0615 8.77607 19.9514 8.74708C19.6906 8.69611 19.4272 8.66028 19.1623 8.63977Z" fill="#D38D00"/>
<path d="M12.4383 5.40962C12.4313 6.4984 12.1367 7.34827 11.6906 8.15114C11.5344 8.43704 11.2734 8.52007 11.0305 8.38613C10.7875 8.25218 10.718 7.98743 10.882 7.68116C11.2039 7.07255 11.457 6.44122 11.4906 5.74331C11.543 4.6467 10.9531 3.74748 9.92814 3.34409C9.83752 3.30884 9.7422 3.28299 9.65548 3.23991C9.41642 3.12164 9.31954 2.88586 9.4086 2.65558C9.44743 2.54295 9.5287 2.45005 9.635 2.39676C9.7413 2.34347 9.86419 2.33403 9.97735 2.37046C10.5922 2.54255 11.1461 2.88488 11.5758 3.35819C12.1453 3.98404 12.4664 4.70701 12.4383 5.40962Z" fill="#D38D00"/>
<path d="M24.4139 19.8199C24.0193 19.9155 23.6201 19.9946 23.2318 20.1113C22.8896 20.2139 22.6311 20.1403 22.5287 19.8622C22.4326 19.6006 22.5646 19.3515 22.8928 19.2356C24.6193 18.6293 26.1568 18.9896 27.5021 20.1888C27.849 20.4974 28.1412 20.8711 28.4396 21.2314C28.6631 21.5024 28.6342 21.7797 28.4053 21.952C28.1764 22.1243 27.9115 22.0773 27.7021 21.7953C27.3006 21.2611 26.8506 20.7771 26.2795 20.4207C25.7172 20.0678 25.0759 19.8613 24.4139 19.8199Z" fill="#D38D00"/>
<path d="M26.7117 18.7286C26.5828 18.6503 26.4438 18.597 26.3438 18.5015C25.9914 18.1654 25.6484 17.8192 25.3086 17.4691C25.0523 17.2051 25.0531 16.967 25.3086 16.7046C25.6492 16.3563 25.9937 16.0116 26.3422 15.6706C26.5977 15.4223 26.832 15.4176 27.0844 15.6612C27.449 16.0137 27.8073 16.3722 28.1594 16.7367C28.3742 16.9615 28.3742 17.2129 28.1594 17.4417C27.8016 17.814 27.437 18.1795 27.0656 18.5383C26.975 18.6158 26.8477 18.655 26.7117 18.7286ZM26.7438 16.6756L26.3242 17.0673L26.7406 17.5372L27.1828 17.0845L26.7438 16.6756Z" fill="#D38D00"/>
<path d="M16.4062 7.05138C16.4051 7.33109 16.321 7.60415 16.1647 7.83581C16.0083 8.06747 15.7868 8.24727 15.5282 8.35234C15.2697 8.45741 14.9858 8.48299 14.7127 8.42584C14.4396 8.3687 14.1896 8.2314 13.9946 8.03141C13.7995 7.83142 13.6682 7.57778 13.6173 7.30276C13.5665 7.02774 13.5983 6.74376 13.7089 6.48694C13.8194 6.23013 14.0037 6.01209 14.2382 5.86056C14.4727 5.70903 14.7468 5.63085 15.0258 5.63598C15.3952 5.64277 15.7471 5.79506 16.0054 6.05992C16.2637 6.32478 16.4077 6.68094 16.4062 7.05138ZM14.9922 6.57436C14.899 6.576 14.8084 6.60547 14.7319 6.65901C14.6555 6.71254 14.5968 6.7877 14.5632 6.87488C14.5296 6.96206 14.5227 7.05731 14.5433 7.14845C14.564 7.23959 14.6113 7.32248 14.6792 7.38653C14.7471 7.45058 14.8325 7.49288 14.9245 7.50802C15.0165 7.52317 15.1109 7.51047 15.1956 7.47155C15.2804 7.43263 15.3516 7.36926 15.4003 7.28953C15.4489 7.2098 15.4728 7.11735 15.4687 7.02397C15.4634 6.90111 15.4104 6.78521 15.3208 6.70116C15.2313 6.6171 15.1125 6.57158 14.9898 6.57436H14.9922Z" fill="#D38D00"/>
<path d="M25.3688 8.29895C25.3641 8.67806 24.8493 9.22088 24.5727 9.18876C24.4282 9.17153 24.2368 9.07127 24.1766 8.95378C24.1453 8.87696 24.1307 8.79437 24.1337 8.71146C24.1366 8.62855 24.1571 8.54721 24.1938 8.47284C24.3011 8.28668 24.4552 8.13193 24.6407 8.02401C24.7156 7.98819 24.797 7.96791 24.88 7.96441C24.963 7.96091 25.0458 7.97426 25.1235 8.00364C25.2485 8.05613 25.3204 8.23628 25.3688 8.29895Z" fill="#D38D00"/>
<path d="M16.4062 1.65346C16.4062 1.70203 16.4062 1.75137 16.4062 1.79994C16.3977 2.14067 16.2141 2.35294 15.9305 2.34824C15.6469 2.34354 15.475 2.13362 15.4688 1.78662C15.4688 1.67853 15.4688 1.57122 15.4688 1.46391C15.4797 1.14511 15.6672 0.941452 15.943 0.945368C16.2188 0.949284 16.3953 1.15372 16.4047 1.47722C16.4062 1.53597 16.4062 1.59707 16.4062 1.65346Z" fill="#D38D00"/>
<path d="M14.7841 2.35388C14.8717 2.3468 14.9598 2.3468 15.0474 2.35388C15.3005 2.39461 15.4482 2.54813 15.4638 2.80662C15.4679 2.925 15.4258 3.04033 15.3465 3.12808C15.2671 3.21584 15.1567 3.26912 15.0388 3.27659C14.8732 3.28874 14.7068 3.28874 14.5411 3.27659C14.2607 3.26249 14.0724 3.0745 14.0646 2.82072C14.0583 2.5544 14.2544 2.36014 14.5498 2.34291C14.6279 2.33821 14.706 2.34291 14.7841 2.34291V2.35388Z" fill="#D38D00"/>
<path d="M17.0865 3.28496C17.0084 3.28927 16.9302 3.28927 16.8521 3.28496C16.734 3.27867 16.6227 3.22787 16.5404 3.14275C16.4581 3.05763 16.4109 2.94447 16.4084 2.82596C16.4053 2.70694 16.4485 2.5914 16.5288 2.50371C16.6091 2.41602 16.7203 2.36306 16.8388 2.35598C17.0141 2.34228 17.1901 2.34228 17.3654 2.35598C17.4851 2.35888 17.5991 2.40817 17.6834 2.49351C17.7677 2.57884 17.8157 2.69359 17.8174 2.81368C17.8191 2.93376 17.7744 3.04984 17.6926 3.13757C17.6108 3.22529 17.4983 3.27784 17.3787 3.28418C17.2814 3.28993 17.1838 3.29019 17.0865 3.28496Z" fill="#D38D00"/>
<path d="M16.4062 4.01136C16.4132 4.09895 16.4132 4.18696 16.4062 4.27455C16.364 4.52755 16.2117 4.67638 15.9531 4.69126C15.8349 4.69577 15.7196 4.6537 15.632 4.57405C15.5444 4.4944 15.4914 4.38352 15.4843 4.26515C15.4725 4.10876 15.471 3.95177 15.4796 3.79518C15.4898 3.49283 15.6718 3.29465 15.9367 3.28917C16.2015 3.28369 16.4054 3.48734 16.4148 3.80458C16.4148 3.87272 16.4148 3.94165 16.4148 4.0098L16.4062 4.01136Z" fill="#D38D00"/>
<path d="M23.7024 9.96168C23.7024 10.3424 23.2017 10.875 22.915 10.8397C22.8374 10.8289 22.7629 10.8025 22.6958 10.7621C22.6287 10.7217 22.5704 10.6682 22.5243 10.6048C22.4916 10.5331 22.4752 10.455 22.4761 10.3762C22.4771 10.2974 22.4954 10.2198 22.5298 10.1489C22.6467 9.95718 22.8073 9.79609 22.9985 9.67891C23.0695 9.64402 23.147 9.62446 23.226 9.62149C23.305 9.61852 23.3838 9.63221 23.4571 9.66167C23.5782 9.71964 23.6509 9.8951 23.7024 9.96168Z" fill="#D38D00"/>
<path d="M25.3826 10.4831C25.3178 10.5614 25.2389 10.7376 25.1115 10.7854C24.9512 10.8347 24.7781 10.8204 24.6279 10.7455C24.4639 10.6569 24.331 10.494 24.2123 10.3413C24.1742 10.2991 24.1448 10.2498 24.1259 10.1961C24.107 10.1425 24.099 10.0856 24.1023 10.0288C24.1055 9.972 24.1201 9.91642 24.145 9.86531C24.1699 9.81419 24.2048 9.76857 24.2475 9.7311C24.4303 9.54781 24.6623 9.52666 24.8545 9.6935C25.0779 9.88541 25.3514 10.0562 25.3826 10.4831Z" fill="#D38D00"/>
<path d="M23.7318 8.7601C23.6537 8.86506 23.5889 9.04913 23.4654 9.10474C23.3878 9.13491 23.3048 9.14901 23.2216 9.14618C23.1383 9.14335 23.0565 9.12366 22.9811 9.08829C22.8013 8.97146 22.6463 8.82028 22.5248 8.64338C22.3834 8.46009 22.4061 8.25174 22.5607 8.07942C22.7154 7.90709 22.9201 7.85069 23.1139 7.97994C23.3795 8.15696 23.6303 8.36375 23.7318 8.7601Z" fill="#D38D00"/>
</g>
<defs>
<clipPath id="clip0_1097_310">
<rect width="30" height="30" fill="white" transform="translate(0 0.5)"/>
</clipPath>
</defs>
</svg>
