<svg width="41" height="32" viewBox="0 0 41 32" fill="none" xmlns="http://www.w3.org/2000/svg">
<g clip-path="url(#clip0_1097_191)">
<path d="M29.7461 14.6533C30.9437 13.844 31.9511 13.078 33.0404 12.4575C33.6611 12.1146 34.3459 11.9039 35.052 11.8386C36.1259 11.738 37.2183 11.7922 38.3015 11.82C38.9034 11.8355 39.137 11.5817 39.1355 10.9968C39.1262 8.15894 39.1262 5.32209 39.1355 2.48628C39.1355 1.8859 38.8678 1.65225 38.2875 1.66617C37.5409 1.70568 36.7926 1.69792 36.0469 1.64296C35.77 1.61356 35.3367 1.32266 35.3011 1.09984C35.2238 0.607773 35.6477 0.502549 36.0748 0.507191C36.8996 0.518023 37.7259 0.494812 38.5506 0.516475C39.6059 0.54278 40.2868 1.21589 40.2883 2.28357C40.2955 10.2267 40.2955 18.1699 40.2883 26.1131C40.2883 27.5475 39.2206 28.5208 37.7228 28.5239C33.4933 28.5311 29.2638 28.5311 25.0343 28.5239H24.1275V30.619C24.7248 30.619 25.319 30.5649 25.8947 30.6438C26.1531 30.6809 26.3743 30.9873 26.6111 31.1714C26.3666 31.3726 26.1252 31.747 25.8776 31.7501C22.2939 31.7873 18.7092 31.7873 15.1234 31.7501C14.8665 31.7501 14.6143 31.3912 14.359 31.1993C14.6143 31.0059 14.8495 30.6886 15.1327 30.6438C15.6805 30.5556 16.253 30.619 16.8626 30.619V28.5316H16.0487C11.844 28.5316 7.6398 28.5316 3.43612 28.5316C1.6226 28.5316 0.678711 27.5815 0.678711 25.7603C0.678711 19.5182 0.678711 13.2771 0.678711 7.0371C0.678711 5.23286 1.63346 4.27349 3.464 4.27195C9.39455 4.26369 15.3261 4.26369 21.2588 4.27195C21.4135 4.27195 21.6131 4.22088 21.7137 4.29825C21.9334 4.46691 22.2057 4.68045 22.2537 4.9172C22.2816 5.05491 21.9442 5.33035 21.7183 5.43557C21.5264 5.52531 21.2618 5.46187 21.0297 5.46187H3.61254C2.19205 5.46187 1.84543 5.81158 1.84543 7.25528C1.84543 13.3674 1.84543 19.4805 1.84543 25.5947C1.84543 27.0105 2.20751 27.368 3.64038 27.368H37.373C38.7533 27.368 39.1278 26.9966 39.1278 25.6318C39.1278 21.7118 39.1278 17.7918 39.1278 13.8718C39.1278 13.6196 39.1077 13.3658 39.0937 13.0564C37.4907 13.0564 35.9278 13.0084 34.3696 13.0873C33.9611 13.109 33.5603 13.502 33.175 13.7542C32.2714 14.3484 31.3878 14.9782 30.478 15.5631C29.4954 16.1944 28.6103 15.7178 28.553 14.5542C28.4757 12.9991 28.4757 12.9991 26.9237 12.9991C26.6652 12.9991 26.4084 12.9991 26.15 12.9991C24.7898 12.9697 24.1864 12.357 24.1833 10.9875C24.1833 8.14965 24.1833 5.31281 24.1833 2.47699C24.1833 1.15554 24.8022 0.53195 26.1252 0.527308C28.3426 0.527308 30.5615 0.508738 32.7789 0.545875C33.0683 0.545875 33.5526 0.782622 33.6052 0.994612C33.7599 1.61356 33.2571 1.68319 32.7882 1.68319C30.725 1.68319 28.6619 1.68319 26.5987 1.68319C25.3608 1.68319 25.3268 1.71878 25.3268 2.92109C25.3268 5.52686 25.3268 8.13212 25.3268 10.7369C25.3268 11.7473 25.4042 11.82 26.4393 11.82C26.9809 11.82 27.5225 11.82 28.0641 11.82C29.1643 11.8355 29.7105 12.3817 29.7399 13.4927C29.7538 13.8208 29.7461 14.1535 29.7461 14.6533ZM18.0789 30.5153H22.8757V28.5982H18.0789V30.5153Z" fill="white"/>
<path d="M17.7199 12.2222V20.4666C18.359 20.0828 18.8929 19.7563 19.4329 19.4376C19.6526 19.3076 19.8723 19.1188 20.1091 19.0879C20.3226 19.06 20.6956 19.1544 20.7544 19.2983C20.8395 19.4979 20.7884 19.925 20.6399 20.024C19.8639 20.5752 19.0429 21.0603 18.1857 21.4739C17.3656 21.8437 16.53 21.1474 16.5083 20.1308C16.4774 18.7381 16.4991 17.3455 16.4991 15.9529C16.4991 14.896 16.4898 13.8392 16.4991 12.7823C16.5146 11.2999 17.4987 10.7305 18.7536 11.4794C20.6754 12.6291 22.5973 13.7804 24.5083 14.9486C25.7849 15.7223 25.7709 16.9463 24.4897 17.7339C23.9868 18.0434 23.4978 18.3993 22.9578 18.6267C22.7288 18.7227 22.3822 18.5447 22.0897 18.4921C22.1888 18.2105 22.2058 17.8267 22.3992 17.6689C22.8773 17.2867 23.4607 17.036 23.9543 16.6678C24.0735 16.5796 24.0549 16.236 24.0115 16.0287C23.9899 15.925 23.7671 15.8616 23.6355 15.7827L17.7199 12.2222Z" fill="white"/>
<path d="M35.7779 9.83155C34.4781 9.64122 33.3733 8.88146 32.9292 7.75807C32.7097 7.20386 32.6598 6.59696 32.7857 6.01432C32.9116 5.43167 33.2077 4.89954 33.6364 4.48539C34.062 4.06857 34.6029 3.78911 35.1891 3.68317C35.7754 3.57723 36.3799 3.6497 36.9245 3.89119C37.3222 4.06914 37.8297 4.25482 37.6116 4.81961C37.3934 5.3844 36.9307 5.17242 36.5098 4.98983C35.7856 4.68035 35.0971 4.75462 34.4982 5.28847C33.8994 5.82231 33.7694 6.47375 33.9799 7.19019C34.1903 7.90662 34.7164 8.4188 35.4762 8.43891C35.9172 8.45129 36.3597 8.14492 36.8146 8.04279C37.0932 7.97935 37.398 8.02886 37.692 8.02731C37.6502 8.32286 37.7168 8.7716 37.5496 8.88765C37.005 9.26676 36.369 9.52672 35.7779 9.83155Z" fill="white"/>
<path d="M26.6486 6.68538C26.6285 4.44788 28.9325 2.9624 30.9317 3.92951C31.3046 4.109 31.7456 4.31171 31.5135 4.83936C31.2814 5.36701 30.8698 5.19061 30.4691 5.00957C29.7201 4.6707 29.0006 4.73569 28.394 5.30976C27.8478 5.82658 27.6482 6.46874 27.8973 7.20993C28.1464 7.95112 28.6524 8.41843 29.4106 8.44783C29.83 8.46176 30.2957 8.26833 30.6717 8.05015C31.0477 7.83197 31.3805 7.66331 31.5893 8.05789C31.7039 8.27607 31.5893 8.77742 31.4036 8.96465C30.582 9.76774 29.5731 9.83737 28.5348 9.44898C27.9778 9.23325 27.4992 8.8536 27.1624 8.36018C26.8256 7.86676 26.6465 7.28277 26.6486 6.68538Z" fill="white"/>
</g>
<defs>
<clipPath id="clip0_1097_191">
<rect width="39.6281" height="31.2816" fill="white" transform="translate(0.675781 0.503906)"/>
</clipPath>
</defs>
</svg>
