<svg width="35" height="35" viewBox="0 0 35 35" fill="none" xmlns="http://www.w3.org/2000/svg">
<g clip-path="url(#clip0_1097_279)">
<path d="M10.437 34.999C9.70467 34.8623 8.96042 34.7921 8.25551 34.577C4.11304 33.3156 1.28426 30.6951 0.29098 26.434C-1.06024 20.6199 2.36543 15.0144 8.14658 13.4057C11.401 12.5006 14.4633 12.9445 17.2829 14.8421C17.5008 14.9898 17.6198 14.9105 17.7873 14.7993C22.2191 11.8617 28.1879 12.496 31.8305 16.2895C35.3514 19.9563 36.0188 25.5171 33.4179 29.6879C33.0572 30.2649 32.6087 30.789 32.1775 31.3195C31.8671 31.7005 31.5614 31.7497 31.306 31.5154C31.0643 31.2939 31.0936 30.9986 31.3975 30.6468C32.6316 29.224 33.5196 27.6208 33.8418 25.7559C34.414 22.4464 33.4463 19.5744 31.1696 17.1518C29.1647 15.018 26.6636 13.9179 23.7067 13.968C21.7842 14.0008 20.0339 14.6124 18.4547 15.5968L19.6027 16.727C21.7641 15.451 24.137 15.2012 26.6014 16.0407C28.576 16.7124 30.1433 17.9329 31.2208 19.7184C33.2934 23.1546 32.5583 27.6363 29.5171 30.2813C26.3844 33.0047 21.884 33.1159 18.6451 30.5228C15.5994 28.0847 14.1593 23.2695 16.8444 19.3119C16.4883 18.9364 16.1312 18.5609 15.7458 18.1553C15.1495 18.9789 14.6776 19.8851 14.3452 20.845C13.0251 24.684 14.2655 28.905 17.5117 31.5883C19.5258 33.2545 21.8373 34.1049 24.4748 33.98C26.3057 33.8934 27.9535 33.2827 29.4814 32.2956C29.5867 32.2273 29.6883 32.1525 29.7964 32.0878C30.0893 31.9128 30.3859 31.9657 30.548 32.2182C30.71 32.4706 30.6459 32.7359 30.3758 32.9337C29.5726 33.5191 28.6882 33.9852 27.7503 34.3172C26.8038 34.6599 25.8143 34.8709 24.8098 34.9443C24.709 34.957 24.6091 34.9756 24.5105 34.9999H23.2737C23.1869 34.9751 23.0985 34.9565 23.0091 34.9443C21.1173 34.8157 19.2944 34.1864 17.7287 33.1214C17.5539 33.002 17.4413 33.0193 17.2774 33.1324C16.2937 33.8224 15.1927 34.3295 14.0275 34.629C13.3867 34.7894 12.7312 34.8796 12.0812 35.0018L10.437 34.999ZM20.2188 17.5902C22.8654 21.8658 22.8791 26.1068 20.227 30.3615C22.8498 32.0514 26.8605 31.664 29.4531 28.8932C31.8928 26.2864 32.0164 22.1037 29.7277 19.3812C27.3219 16.5101 23.1034 15.7199 20.2188 17.5902ZM14.8377 17.613C11.9997 15.8092 7.75567 16.377 5.25737 19.4359C2.86709 22.3525 3.16918 26.6546 5.93114 29.2559C8.69309 31.8572 12.6049 31.8645 14.8249 30.3269C12.1755 26.6136 12.1261 21.4238 14.8423 17.6139L14.8377 17.613ZM15.4684 31.1937C13.5853 32.3166 11.5493 32.6666 9.38518 32.1908C4.67237 31.1536 1.73008 26.6446 2.86525 22.0955C3.72212 18.663 5.9522 16.4727 9.41814 15.76C12.8969 15.0436 15.7861 16.2294 17.9146 19.0685C19.2539 20.8532 19.7858 22.8967 19.5148 25.1243C19.3665 26.2921 18.96 27.4128 18.3247 28.4055C18.267 28.4967 18.2002 28.679 18.2414 28.7245C18.5719 29.0891 18.9271 29.4318 19.2823 29.7882C22.4223 25.611 21.5444 19.609 17.4056 16.1975C13.297 12.8032 7.06082 13.382 3.46122 17.499C-0.0523295 21.5204 0.285473 27.6736 4.2357 31.2356C8.22895 34.835 13.6219 34.5661 16.5945 32.3038C16.2283 31.9456 15.863 31.5856 15.4684 31.1973V31.1937ZM17.5182 20.268C15.9921 22.5312 16.2832 26.0667 17.542 27.6609C18.8758 25.6411 18.8703 22.2049 17.5182 20.2717V20.268Z" fill="#D38D00"/>
<path d="M26.2306 -0.0012362C26.7012 0.403451 26.671 0.737046 26.1336 1.05059C25.8388 1.22285 25.5459 1.39876 25.2438 1.55553C24.9417 1.7123 24.6735 1.64668 24.5288 1.39694C24.3759 1.13262 24.4519 0.850066 24.7421 0.667774C25.1193 0.436263 25.5047 0.218424 25.8873 -0.00488281L26.2306 -0.0012362Z" fill="#D38D00"/>
<path d="M9.13272 -0.000976562C9.4989 0.20957 9.8651 0.416471 10.2221 0.630663C10.5663 0.83483 10.6661 1.11647 10.4968 1.38809C10.3274 1.6597 10.039 1.70072 9.69116 1.5084C9.42293 1.35892 9.15836 1.20397 8.89288 1.05267C8.3555 0.742773 8.32255 0.414649 8.78669 -6.42141e-05L9.13272 -0.000976562Z" fill="#D38D00"/>
<path d="M17.5158 3.37194C18.6409 1.78509 20.3254 1.60098 21.6015 2.10866C22.4053 2.42093 23.0549 3.03303 23.4124 3.81483C23.7699 4.59662 23.807 5.48641 23.5157 6.29499C23.1889 7.21192 22.6204 7.98119 21.9887 8.70671C20.8214 10.0385 19.4845 11.2129 18.012 12.2003C17.5616 12.5048 17.4627 12.5048 17.0279 12.2003C15.2409 10.9498 13.5811 9.56257 12.294 7.7834C11.8362 7.14538 11.4939 6.45996 11.3721 5.6752C11.2832 5.07543 11.3588 4.46291 11.5909 3.90241C11.7246 3.56244 11.9708 3.43028 12.2537 3.52962C12.5549 3.63444 12.6867 3.9097 12.5512 4.25332C12.2391 5.0472 12.3535 5.81465 12.7508 6.52194C13.0766 7.10868 13.4613 7.6611 13.8988 8.17077C14.9433 9.37481 16.2067 10.3391 17.5762 11.3317C18.4917 10.5506 19.4584 9.80228 20.3318 8.96191C20.9705 8.3276 21.5493 7.63625 22.0611 6.89655C22.5756 6.17285 22.841 5.35436 22.5408 4.44382C22.3798 3.95289 22.0551 3.53152 21.6205 3.24967C21.1858 2.96782 20.6675 2.84244 20.1514 2.89434C19.0016 3.01192 18.174 3.80579 18.0559 4.89499C18.044 5.00801 18.0367 5.12285 18.0165 5.23405C17.9653 5.51934 17.795 5.68522 17.4993 5.67702C17.2036 5.66882 17.0416 5.49473 17.0068 5.20762C16.9906 4.99315 16.96 4.78 16.9152 4.5696C16.5582 3.28171 15.1457 2.56439 13.8686 3.02012C13.431 3.17507 13.1106 3.05749 13.0447 2.71022C12.9897 2.40579 13.1362 2.22077 13.4109 2.09772C14.6751 1.53717 16.3513 1.95462 17.2649 3.06569C17.3455 3.15502 17.4206 3.25254 17.5158 3.37194Z" fill="#D38D00"/>
<path d="M8.95676 10.8781C8.78923 10.7259 8.5677 10.6174 8.53016 10.4634C8.48805 10.2938 8.55487 10.0013 8.68212 9.90648C9.05685 9.6316 9.46161 9.39983 9.8887 9.21559C10.0288 9.15453 10.3171 9.23291 10.4224 9.35049C10.5277 9.46807 10.5817 9.78434 10.4993 9.88916C10.1167 10.3731 9.51702 10.5381 8.95676 10.8781Z" fill="#D38D00"/>
<path d="M26.5604 10.2012C26.5686 10.6141 26.2098 10.9112 25.9049 10.77C25.4634 10.562 25.0389 10.32 24.6352 10.0463C24.4146 9.8977 24.3871 9.64067 24.5381 9.40825C24.6892 9.17582 24.9043 9.08285 25.157 9.20864C25.5619 9.41424 25.9561 9.64027 26.338 9.88585C26.4515 9.9615 26.5091 10.131 26.5604 10.2012Z" fill="#D38D00"/>
<path d="M26.7737 4.89923C26.9797 4.89923 27.1866 4.8892 27.3907 4.89923C27.6864 4.91928 27.8576 5.09519 27.8668 5.3823C27.8759 5.66941 27.7203 5.87722 27.4246 5.89271C26.9672 5.91746 26.5088 5.91746 26.0514 5.89271C25.7612 5.87631 25.6001 5.67488 25.6093 5.3823C25.6184 5.08972 25.7923 4.92019 26.0844 4.89923C26.316 4.88647 26.5449 4.89923 26.7737 4.89923Z" fill="#D38D00"/>
<path d="M8.28599 5.90695C8.06903 5.90695 7.85025 5.92336 7.6342 5.90695C7.33026 5.87779 7.13252 5.66086 7.15449 5.38833C7.17647 5.11581 7.33759 4.9162 7.6342 4.90708C8.06904 4.89341 8.50389 4.8925 8.93782 4.90708C9.23076 4.91802 9.39554 5.08937 9.4111 5.38833C9.42667 5.68729 9.25273 5.86502 8.9369 5.9106C8.90291 5.91548 8.8687 5.91852 8.83438 5.91971H8.2851L8.28599 5.90695Z" fill="#D38D00"/>
</g>
<defs>
<clipPath id="clip0_1097_279">
<rect width="35" height="35" fill="white"/>
</clipPath>
</defs>
</svg>
