<svg width="41" height="31" viewBox="0 0 41 31" fill="none" xmlns="http://www.w3.org/2000/svg">
<g clip-path="url(#clip0_1097_220)">
<path d="M0.383414 12.658H1.45561V28.4832L1.74186 28.7132C1.8019 28.5095 1.88989 28.3152 2.00331 28.1357C4.3761 25.3029 6.75497 22.4762 9.13989 19.6556C10.0036 18.633 10.1045 18.638 10.9435 19.6357C11.8452 20.7096 12.7536 21.7868 13.7134 22.9136C13.9318 22.6439 14.1237 22.4172 14.2991 22.1872C16.2527 19.5883 18.2057 16.9872 20.1582 14.3838C20.7936 13.5399 21.0601 13.54 21.7037 14.3954C25.0472 18.8476 28.3896 23.3008 31.7309 27.7551C31.8964 27.9686 32.0619 28.1705 32.3283 28.5047V8.07957H1.48708V10.2803H0.328797C0.328797 9.33049 0.275845 8.39726 0.366851 7.47727C0.388362 7.24893 0.863263 6.91799 1.14621 6.88987C1.96527 6.81044 2.80088 6.86174 3.76555 6.86174C3.76555 6.01124 3.79367 5.1955 3.75561 4.37975C3.72087 3.6517 4.04021 3.38695 4.73847 3.41343C5.50458 3.44156 6.27399 3.41343 7.17579 3.41343C7.17579 2.56458 7.19564 1.77696 7.17579 0.991C7.15262 0.30928 7.38924 -0.0100698 8.12722 -0.0017965C16.6211 0.0125439 25.1151 0.016406 33.609 0.00978734C33.743 0.00978734 33.8754 0.0346073 34.0524 0.0511539V1.14157H8.37873V3.36875C8.70966 3.38695 9.06209 3.42004 9.40461 3.42004C18.1456 3.42004 26.8867 3.42004 35.6277 3.42004C36.915 3.42004 36.9415 3.44652 36.9415 4.7024V22.8507H39.1786V1.17467H36.4385V0.0164074C37.562 0.0164074 38.6838 -0.0117263 39.8007 0.0428775C40.0009 0.0528055 40.2276 0.373812 40.3617 0.60381C40.4477 0.747766 40.3832 0.981075 40.3832 1.17467C40.3832 8.39892 40.3832 15.6243 40.3832 22.8507C40.3832 24.009 40.3418 24.0487 39.1587 24.0537C38.4969 24.0537 37.835 24.0608 37.1731 24.0752C37.1252 24.0752 37.0788 24.1182 36.9398 24.186C36.9398 24.9621 36.9183 25.7828 36.9398 26.6018C36.9597 27.2439 36.6767 27.5053 36.0513 27.4937C35.2554 27.4772 34.4595 27.4937 33.5229 27.4937C33.5229 28.3343 33.4948 29.1219 33.5229 29.9062C33.5577 30.6591 33.2417 30.9189 32.4954 30.9172C22.1008 30.9029 11.7051 30.9029 1.30836 30.9172C0.71765 30.9172 0.295713 30.8411 0.297368 30.0816C0.313915 24.373 0.31832 18.665 0.310598 12.9575C0.326868 12.8559 0.351224 12.7558 0.383414 12.658ZM31.7938 29.7672L20.926 15.2757L14.501 23.8518C16.1027 25.753 17.6316 27.5979 19.2052 29.4048C19.3988 29.6266 19.8191 29.7474 20.1384 29.7523C22.4252 29.7804 24.7135 29.7672 27.0003 29.7672H31.7938ZM35.7451 4.63125H4.96845V6.86174H32.3035C33.4502 6.86174 33.5296 6.93785 33.5296 8.0746C33.5296 13.8108 33.5296 19.5469 33.5296 25.2831V26.2924H35.7419L35.7451 4.63125ZM17.9195 29.7043L10.0483 20.3621L2.187 29.7043H17.9195Z" fill="white"/>
<path d="M16.9037 13.1393C16.9086 13.7042 16.7454 14.2578 16.4349 14.7297C16.1243 15.2015 15.6804 15.5704 15.1597 15.7893C14.6389 16.0082 14.0648 16.0673 13.5104 15.959C12.956 15.8507 12.4463 15.58 12.0461 15.1812C11.646 14.7825 11.3734 14.2738 11.2632 13.7197C11.153 13.1657 11.2101 12.5914 11.4272 12.0698C11.6442 11.5483 12.0115 11.1031 12.4823 10.7909C12.9531 10.4787 13.506 10.3135 14.0709 10.3165C14.4428 10.3138 14.8116 10.385 15.1558 10.5258C15.5 10.6666 15.8129 10.8743 16.0764 11.1368C16.3398 11.3993 16.5486 11.7115 16.6906 12.0552C16.8326 12.3989 16.9051 12.7674 16.9037 13.1393ZM15.7455 13.1708C15.7526 12.9441 15.714 12.7184 15.6322 12.5069C15.5504 12.2955 15.4269 12.1026 15.2691 11.9398C15.1113 11.777 14.9224 11.6475 14.7136 11.5591C14.5048 11.4707 14.2803 11.4251 14.0536 11.4251C13.8268 11.4251 13.6024 11.4707 13.3936 11.5591C13.1848 11.6475 12.9959 11.777 12.8381 11.9398C12.6803 12.1026 12.5568 12.2955 12.4749 12.5069C12.3931 12.7184 12.3546 12.9441 12.3617 13.1708C12.3546 13.3974 12.3931 13.6231 12.4749 13.8346C12.5568 14.0461 12.6803 14.2389 12.8381 14.4018C12.9959 14.5646 13.1848 14.694 13.3936 14.7824C13.6024 14.8708 13.8268 14.9164 14.0536 14.9164C14.2803 14.9164 14.5048 14.8708 14.7136 14.7824C14.9224 14.694 15.1113 14.5646 15.2691 14.4018C15.4269 14.2389 15.5504 14.0461 15.6322 13.8346C15.714 13.6231 15.7526 13.3974 15.7455 13.1708Z" fill="white"/>
</g>
<defs>
<clipPath id="clip0_1097_220">
<rect width="40.0941" height="30.9157" fill="white" transform="translate(0.313965 0.00292969)"/>
</clipPath>
</defs>
</svg>
