<svg width="91" height="17" viewBox="0 0 91 17" fill="none" xmlns="http://www.w3.org/2000/svg">
<path d="M9.67072 0.662109L11.6913 6.17414L18.2301 6.17414L12.9401 9.58076L14.9607 15.0928L9.67072 11.6862L4.38076 15.0928L6.40134 9.58076L1.11138 6.17414L7.65013 6.17414L9.67072 0.662109Z" fill="#FF6B00"/>
<path d="M27.6732 0.662109L29.6937 6.17414L36.2325 6.17414L30.9425 9.58076L32.9631 15.0928L27.6732 11.6862L22.3832 15.0928L24.4038 9.58076L19.1138 6.17414L25.6526 6.17414L27.6732 0.662109Z" fill="#FF6B00"/>
<path d="M45.6702 0.662109L47.6908 6.17414L54.2296 6.17414L48.9396 9.58076L50.9602 15.0928L45.6702 11.6862L40.3803 15.0928L42.4009 9.58076L37.1109 6.17414L43.6496 6.17414L45.6702 0.662109Z" fill="#FF6B00"/>
<path d="M63.6683 0.662109L65.6889 6.17414L72.2276 6.17414L66.9377 9.58076L68.9582 15.0928L63.6683 11.6862L58.3783 15.0928L60.3989 9.58076L55.1089 6.17414L61.6477 6.17414L63.6683 0.662109Z" fill="#FF6B00"/>
<path d="M81.6712 0.662109L83.6918 6.17414L90.2305 6.17414L84.9406 9.58076L86.9612 15.0928L81.6712 11.6862L76.3812 15.0928L78.4018 9.58076L73.1119 6.17414L79.6506 6.17414L81.6712 0.662109Z" fill="#FF6B00"/>
</svg>
