<svg width="40" height="40" viewBox="0 0 40 40" fill="none" xmlns="http://www.w3.org/2000/svg">
<circle cx="20" cy="20" r="20" fill="#D38D00"/>
<path d="M29.8841 19.6998L25.4398 15.6488C25.3163 15.5485 25.1813 15.5292 25.0347 15.5909C24.8882 15.6528 24.8147 15.7646 24.8147 15.9267V18.5193H10.3704C10.2623 18.5193 10.1735 18.554 10.1041 18.6234C10.0348 18.6928 10 18.7816 10 18.8896V21.1117C10 21.2197 10.0347 21.3085 10.1041 21.3778C10.1736 21.4472 10.2624 21.4819 10.3703 21.4819H24.8148V24.0744C24.8148 24.229 24.8884 24.3408 25.0348 24.41C25.1816 24.472 25.3166 24.4486 25.44 24.3408L29.8844 20.2432C29.9615 20.1661 30 20.0737 30 19.9656C30 19.8655 29.9613 19.7769 29.8841 19.6998Z" fill="white"/>
</svg>
