<svg width="40" height="40" viewBox="0 0 40 40" fill="none" xmlns="http://www.w3.org/2000/svg">
<circle cx="20" cy="20" r="20" fill="#D38D00"/>
<path d="M18.6889 17.5C18.3141 16.3067 17.1993 15.4412 15.8824 15.4412C14.258 15.4412 12.9412 16.758 12.9412 18.3824C12.9412 19.8053 13.9516 20.9922 15.2941 21.2647V23.0882H11.1765C10.5267 23.0882 10 22.5615 10 21.9118V15.4412C10 14.7914 10.5267 14.2647 11.1765 14.2647H12.5776L13.1348 13.1503C13.3341 12.7518 13.7415 12.5 14.1871 12.5H17.5776C18.0232 12.5 18.4306 12.7518 18.6299 13.1503L19.1871 14.2647H20.5882C21.238 14.2647 21.7647 14.7914 21.7647 15.4412V17.5H18.6889ZM17.411 17.5H17.3529C16.2159 17.5 15.2941 18.4218 15.2941 19.5588V20.0466C14.6087 19.8044 14.1176 19.1507 14.1176 18.3824C14.1176 17.4077 14.9077 16.6176 15.8824 16.6176C16.5355 16.6176 17.1058 16.9725 17.411 17.5ZM25.8824 21.2761L27.7067 19.8166C27.9153 19.6497 28.1745 19.5588 28.4416 19.5588H29.1176C29.605 19.5588 30 19.9539 30 20.4412V25.7353C30 26.2226 29.605 26.6176 29.1176 26.6176H28.4416C28.1745 26.6176 27.9153 26.5267 27.7067 26.3598L25.8824 24.9004V26.6176C25.8824 27.105 25.4873 27.5 25 27.5H17.3529C16.8656 27.5 16.4706 27.105 16.4706 26.6176V19.5588C16.4706 19.0715 16.8656 18.6765 17.3529 18.6765H25C25.4873 18.6765 25.8824 19.0715 25.8824 19.5588V21.2761ZM23.6765 21.6176C24.0826 21.6176 24.4118 21.2884 24.4118 20.8824C24.4118 20.4763 24.0826 20.1471 23.6765 20.1471C23.2704 20.1471 22.9412 20.4763 22.9412 20.8824C22.9412 21.2884 23.2704 21.6176 23.6765 21.6176Z" fill="white"/>
</svg>
