<svg width="41" height="47" viewBox="0 0 41 47" fill="none" xmlns="http://www.w3.org/2000/svg">
<g clip-path="url(#clip0_1097_202)">
<path d="M18.4957 10.8825C19.0097 10.3295 19.501 9.76272 20.0377 9.22986C20.8093 8.45822 21.7694 8.50975 22.4255 9.37564C22.6366 9.65213 22.8251 9.66595 23.1318 9.62699C23.7673 9.53191 24.4096 9.48987 25.0521 9.50132C26.1919 9.55033 26.77 10.3873 26.5363 11.5121C26.295 12.6784 26.0763 13.8509 25.8564 15.0222C25.7939 15.3301 25.7544 15.6422 25.7382 15.9559C25.7228 16.3019 25.7809 16.6473 25.9087 16.9692C26.0365 17.2911 26.2311 17.5823 26.4797 17.8234C28.307 19.6843 30.1293 21.5501 31.9465 23.421C32.7621 24.263 33.4885 25.1804 33.7738 26.3429C34.0704 27.5607 34.3243 28.791 34.5744 30.0201C35.0771 32.4808 35.1902 34.9679 35.0834 37.4738C35.018 39.0284 35.0017 40.5981 35.4277 42.1074C35.6791 43.0022 36.0988 43.8543 36.4934 44.7013C36.7247 45.204 36.7134 45.5811 36.3275 45.811C35.9417 46.041 35.6037 45.9292 35.297 45.4755C34.4436 44.1879 33.9426 42.699 33.8442 41.1573C33.7144 39.6404 33.6725 38.1172 33.7185 36.5954C33.8442 33.1796 33.2535 29.8668 32.3713 26.6018C32.174 25.8691 31.6487 25.1653 31.1146 24.591C29.3484 22.6933 27.5421 20.8342 25.6955 19.0136C24.5707 17.8989 24.1459 16.617 24.4388 15.0787C24.6725 13.8295 24.9067 12.5812 25.1413 11.3336C25.1639 11.2143 25.1815 11.0923 25.223 10.8435L23.1619 10.9868C23.1619 12.6947 22.3702 14.0268 21.5357 15.3489C21.3372 15.6437 21.2083 15.9798 21.1587 16.3317C21.0657 17.3559 21.0418 18.3865 20.9903 19.4019C23.5176 19.5879 25.2632 20.9666 26.9108 22.5262C27.7302 23.3053 27.744 23.9362 27.044 24.875C27.3079 25.1502 27.5882 25.4204 27.8408 25.7145C28.542 26.5301 28.5445 27.1547 27.8697 27.9766C26.6129 29.5212 24.2113 29.6594 22.6102 28.2594C22.5097 28.1653 22.3908 28.0929 22.2611 28.0467C22.1314 28.0004 21.9936 27.9813 21.8562 27.9905C21.0242 28.0131 20.191 28.0181 19.3603 27.9968C19.0738 27.9892 18.9443 28.0634 18.8664 28.3461C18.6151 29.2673 18.3373 30.1835 18.0533 31.0959C17.8849 31.6338 18.0533 32.046 18.4554 32.3979C18.6142 32.5267 18.7629 32.6674 18.9003 32.8189C19.0197 32.9371 19.0883 33.0972 19.0916 33.2652C19.0949 33.4332 19.0326 33.5959 18.9179 33.7187C18.6666 34.0304 18.3072 34.0957 17.993 33.8594C16.9876 33.1054 16.2851 32.2395 16.6633 30.8533C17.014 29.5689 17.3985 28.2921 17.7818 27.0165C17.8974 26.6282 18.2041 26.5213 18.5937 26.5289C19.8165 26.5515 21.0406 26.5779 22.2634 26.5528C22.7095 26.544 23.0174 26.6407 23.3278 26.9876C24.3395 28.1413 26.1341 28.0696 26.9497 26.7689C26.3528 26.2386 25.7357 25.6932 25.1225 25.144C23.7338 23.9023 22.0975 23.7754 20.3556 24.0569C19.2396 24.2378 18.1174 24.3685 16.9976 24.5206C16.3893 24.6036 15.9746 24.9165 15.6944 25.4745C14.5812 27.6752 13.7179 29.9937 13.1206 32.3866C13.0243 32.7617 13.0493 33.1577 13.1922 33.5176C13.9771 35.1794 14.9413 36.7505 16.0676 38.2027C17.2427 39.7284 18.8601 40.6044 20.5542 41.381C21.8939 41.9968 23.2461 42.5862 24.567 43.2397C24.8547 43.3818 25.0935 43.711 25.2481 44.0089C25.5109 44.5439 25.7397 45.0951 25.933 45.659C26.1241 46.173 25.9657 46.5538 25.5359 46.7021C25.1363 46.8403 24.8045 46.6405 24.6059 46.1416C23.9298 44.4374 23.9311 44.4349 22.2646 43.6859C21.3623 43.28 20.4625 42.874 19.5538 42.4845C17.1861 41.4715 15.2809 39.9044 13.9601 37.6925C13.1331 36.3101 12.4218 34.8598 11.6401 33.4497C11.2216 32.6957 10.7743 31.9567 10.3206 31.2228C10.0846 30.8686 9.93473 30.4641 9.88301 30.0416C9.83129 29.6191 9.87914 29.1904 10.0227 28.7898C10.4324 27.5883 10.8522 26.3894 11.2493 25.1842C11.3208 24.9486 11.3502 24.7023 11.336 24.4565C11.2568 22.6368 11.1399 20.8183 11.0846 18.9985C11.0557 18.0522 11.566 17.2843 12.261 16.7288C12.9333 16.1909 13.0615 15.5488 13.0892 14.7658C13.1558 12.9297 13.2752 11.0949 13.3933 9.26128C13.4762 7.97689 14.3157 7.38497 15.5637 7.73308C16.9298 8.11011 17.7831 9.03507 18.2305 10.3584C18.2707 10.4765 18.3021 10.5985 18.3423 10.7166C18.3499 10.7442 18.3863 10.7618 18.4957 10.8825ZM12.506 22.0775L12.6656 22.1479C13.2274 20.7655 14.2868 20.1371 15.6894 20.0114C15.8615 19.9964 16.0312 19.9549 16.2033 19.9436C16.4547 19.926 16.5377 19.8053 16.5678 19.5578C16.6359 18.9409 16.9415 18.3747 17.4199 17.9793C18.6653 16.9211 19.6556 15.6493 20.5215 14.2757C21.0569 13.4261 21.5621 12.5539 21.7054 11.5335C21.7858 10.9667 21.6011 10.4916 21.067 10.0053C20.3732 10.7417 19.7222 11.4882 19.0147 12.1757C17.1899 13.9464 15.3274 15.6782 13.5114 17.454C13.1093 17.8486 12.6217 18.3463 12.5513 18.8489C12.403 19.9096 12.506 21.0017 12.506 22.0775ZM11.943 31.1537C12.0071 30.9803 12.0611 30.8546 12.1001 30.7239C12.7012 28.7089 13.4749 26.7496 14.4125 24.8675C14.8913 23.891 15.6403 23.2852 16.7211 23.142C18.3235 22.9308 19.9321 22.7649 21.5332 22.5488C22.8666 22.3703 24.0467 22.7159 25.1363 23.47C25.2864 23.5837 25.4452 23.6854 25.6113 23.7741C25.7389 23.8208 25.8712 23.8532 26.0059 23.8709C25.9519 23.7452 25.928 23.5881 25.84 23.4939C24.8746 22.4755 23.7051 21.6725 22.4079 21.1375C22.0366 20.9749 21.6326 20.9009 21.2278 20.9213C19.2736 21.0897 17.3244 21.2983 15.3739 21.512C14.8021 21.5736 14.3924 21.889 14.1172 22.398C13.008 24.4926 12.1039 26.6895 11.4177 28.9582C11.1525 29.8291 11.4441 30.4587 11.943 31.1537ZM14.5005 14.5157L14.684 14.6414C15.2696 14.013 15.815 13.3256 16.4547 12.7563C16.9951 12.28 17.1421 11.7584 16.9411 11.1225C16.8091 10.6752 16.6131 10.2494 16.3592 9.85823C16.0211 9.36308 15.4971 9.11173 14.8285 9.05015C14.7179 10.8976 14.6086 12.706 14.5005 14.5157ZM19.5689 17.9856C19.0662 18.5838 18.2405 18.8653 17.959 19.7148L19.6481 19.5603C19.6204 19.0048 19.594 18.4945 19.5689 17.9856Z" fill="white"/>
<path d="M36.9935 6.96468C35.8474 6.86415 35.2655 7.21603 34.8571 8.29306C34.7226 8.64369 34.5818 8.96918 34.1281 8.97421C34.0377 8.97983 33.9471 8.96704 33.8617 8.93662C33.7763 8.90619 33.698 8.85876 33.6315 8.79719C33.565 8.73563 33.5117 8.66121 33.4748 8.57845C33.4379 8.49568 33.4182 8.40629 33.4168 8.31568C33.4171 8.22186 33.4242 8.12819 33.4382 8.03543C33.5714 6.60903 33.3012 6.15912 31.9854 5.61495C31.533 5.42769 31.357 5.1487 31.4676 4.74528C31.5807 4.32176 31.8874 4.17347 32.2958 4.23253C33.1303 4.35821 33.7825 4.00758 34.1608 3.32014C34.6258 2.47561 34.9526 1.56071 35.3585 0.680988C35.4653 0.448491 35.596 0.168237 35.7971 0.0589004C35.973 -0.0366118 36.3413 -0.00896214 36.4833 0.119225C36.5749 0.215849 36.6464 0.329705 36.6936 0.454186C36.7409 0.578666 36.7629 0.711291 36.7585 0.844362C36.6969 1.60846 36.5273 2.36376 36.4657 3.1266C36.4429 3.56467 36.4788 4.00381 36.5725 4.43236C36.6173 4.68917 36.7279 4.92999 36.8936 5.13131C37.0592 5.33263 37.2742 5.48757 37.5176 5.58101C38.068 5.81351 38.2452 6.07743 38.1535 6.4733C38.0617 6.86917 37.7589 7.03632 37.1405 6.976L36.9935 6.96468ZM34.6836 6.12518L35.5106 5.67778L35.0908 4.5153L34.1709 5.31459L34.6836 6.12518Z" fill="white"/>
<path d="M4.49208 6.44728C4.67038 6.61599 4.8324 6.80113 4.97594 7.00025C5.06014 7.12592 5.02998 7.33454 5.04506 7.50294C5.15943 8.80241 5.79911 9.49236 7.08852 9.70098C7.19812 9.70941 7.30718 9.72367 7.41526 9.74371C7.77217 9.84425 7.99336 10.0742 7.97827 10.455C7.96319 10.8358 7.74452 11.062 7.37755 11.1362C7.22423 11.1676 7.06588 11.1726 6.91005 11.1902C5.54146 11.336 4.90556 11.9443 4.69317 13.3267C4.66678 13.4938 4.65045 13.7175 4.54237 13.8042C4.35009 13.955 4.06353 14.136 3.86497 14.0895C3.64253 14.038 3.45025 13.7678 3.2919 13.5567C3.22153 13.4637 3.26802 13.2827 3.25671 13.1419C3.14235 11.7595 2.4901 11.0545 1.13911 10.8559C0.55598 10.7705 0.292059 10.5254 0.315937 10.0893C0.339815 9.65322 0.599965 9.46094 1.16927 9.41947C2.69621 9.30888 3.31955 8.74209 3.57844 7.22772C3.66516 6.71371 3.92152 6.44477 4.49208 6.44728ZM4.10501 11.0218L4.88797 10.3256L4.19173 9.53886L3.40877 10.2464L4.10501 11.0218Z" fill="white"/>
<path d="M31.2954 36.7589C31.313 37.332 31.0692 37.6537 30.6859 37.6965C30.3026 37.7392 29.962 37.469 29.9029 36.9889C29.7779 35.9266 29.4107 34.9072 28.8297 34.0092C28.2129 33.0371 27.3598 32.2373 26.3501 31.6842C26.281 31.6465 26.2094 31.6138 26.144 31.5711C25.767 31.326 25.6489 30.9603 25.8374 30.6059C25.8778 30.5193 25.9365 30.4425 26.0096 30.3808C26.0826 30.3192 26.1682 30.2742 26.2604 30.2489C26.3526 30.2237 26.4492 30.2189 26.5435 30.2347C26.6378 30.2506 26.7274 30.2868 26.8063 30.3408C27.4674 30.7555 28.146 31.1715 28.7128 31.698C30.1593 33.0157 31.0772 34.8145 31.2954 36.7589Z" fill="white"/>
<path d="M40.5195 26.0957C40.5272 26.3458 40.4848 26.595 40.3948 26.8285C40.3047 27.062 40.1688 27.2751 39.9951 27.4553C39.8214 27.6355 39.6135 27.7791 39.3834 27.8776C39.1533 27.9762 38.9059 28.0277 38.6556 28.0291C38.4054 28.0305 38.1573 27.9819 37.9262 27.8859C37.695 27.79 37.4854 27.6488 37.3097 27.4706C37.1339 27.2924 36.9956 27.0809 36.9029 26.8484C36.8102 26.616 36.765 26.3673 36.7699 26.1171C36.7795 25.628 36.9797 25.162 37.328 24.8185C37.6763 24.475 38.1451 24.2811 38.6342 24.2784C39.1234 24.2756 39.5943 24.464 39.9465 24.8035C40.2987 25.143 40.5043 25.6067 40.5195 26.0957ZM38.6654 26.7908C38.8716 26.4803 39.0576 26.3169 39.0852 26.1309C39.098 26.0681 39.0946 26.0031 39.0753 25.942C39.0559 25.881 39.0214 25.8258 38.9749 25.7818C38.9283 25.7378 38.8713 25.7063 38.8093 25.6904C38.7472 25.6745 38.6821 25.6747 38.6202 25.6909C38.5209 25.7287 38.4324 25.7903 38.3624 25.8703C38.2925 25.9503 38.2433 26.0463 38.2192 26.1497C38.2104 26.3119 38.4417 26.4879 38.6654 26.7908Z" fill="white"/>
<path d="M17.3677 5.6056C17.2559 5.86454 17.1654 6.09708 17.0585 6.32082C16.8649 6.72934 16.5042 6.894 16.1447 6.74945C15.7575 6.59484 15.6042 6.21398 15.7676 5.77152C15.8493 5.53898 15.9524 5.31398 16.0466 5.08395C15.5439 4.72697 14.5458 4.7232 14.9468 3.79681C15.3163 2.94206 15.9914 3.60198 16.5997 3.70002C16.6852 3.50267 16.7719 3.2915 16.8649 3.0841C17.0761 2.61148 17.4381 2.42544 17.8316 2.58131C18.225 2.73718 18.3557 3.14192 18.1785 3.607C18.1018 3.81064 18.0176 4.01175 17.9196 4.25812C18.171 4.37125 18.4085 4.47181 18.6398 4.58619C19.0496 4.78731 19.208 5.14178 19.0609 5.50379C18.9025 5.89471 18.533 6.04051 18.088 5.88088C17.8492 5.80043 17.6204 5.70867 17.3677 5.6056Z" fill="white"/>
<path d="M34.7241 18.0358C35.198 17.665 35.5349 16.7336 36.2753 17.4211C36.9729 18.0697 36.1018 18.5009 35.8366 19.0037C36.6964 19.8835 36.822 20.1928 36.4751 20.5611C36.1282 20.9293 35.7825 20.8326 34.8674 20.0884C34.6977 20.2757 34.5293 20.4718 34.3483 20.6566C34.0177 20.9947 33.6042 21.0274 33.3063 20.7471C33.0084 20.4668 33.0008 20.0922 33.2837 19.7327C33.437 19.5391 33.6042 19.3556 33.7701 19.162C33.4005 18.6668 32.527 18.3815 33.1341 17.577C33.4383 17.1798 33.7538 17.2866 34.7241 18.0358Z" fill="white"/>
<path d="M7.23046 16.8395C6.80057 16.4097 5.84777 16.2312 6.36941 15.4141C6.9074 14.5669 7.47556 15.394 8.01229 15.5939C8.44721 15.1929 8.632 14.2011 9.46914 14.7731C10.2585 15.3148 9.46915 15.8591 9.25421 16.3958C9.64513 16.8157 10.6369 16.9942 10.0851 17.83C9.55209 18.6358 9.00155 17.8414 8.43088 17.6239C8.28758 17.8363 8.15057 18.0588 7.99345 18.2675C7.72823 18.6194 7.32975 18.7024 7.00545 18.4849C6.68115 18.2675 6.59694 17.8816 6.81816 17.4944C6.94135 17.2782 7.08339 17.0708 7.23046 16.8395Z" fill="white"/>
<path d="M28.6451 10.6554C28.1863 10.6554 27.867 10.3927 27.8419 10.0169C27.8142 9.61593 28.0141 9.33437 28.4012 9.26272C28.9724 9.15852 29.5484 9.08301 30.1271 9.03646C30.2175 9.02397 30.3095 9.03044 30.3973 9.05546C30.4851 9.08048 30.5667 9.12351 30.6369 9.18181C30.7072 9.2401 30.7645 9.31238 30.8053 9.39405C30.846 9.47572 30.8694 9.56498 30.8737 9.65615C30.9014 10.0559 30.7015 10.3299 30.3094 10.4028C29.7387 10.5096 29.1617 10.5788 28.6451 10.6554Z" fill="white"/>
<path d="M28.268 11.7402C29.0222 12.1261 29.7086 12.4278 30.3308 12.83C30.469 12.9193 30.4728 13.3881 30.3835 13.6232C30.2578 13.9437 29.9122 14.0455 29.5866 13.9123C29.0373 13.6886 28.4956 13.4422 27.9702 13.1656C27.6672 13.0073 27.5013 12.6981 27.6697 12.3738C27.7892 12.1475 28.0368 11.9816 28.268 11.7402Z" fill="white"/>
<path d="M28.9433 6.62451C28.9452 6.65549 28.9452 6.68655 28.9433 6.71753C28.9106 7.08708 27.5518 8.50495 27.1835 8.48484C26.951 8.47227 26.6242 8.34783 26.5261 8.1706C26.4168 7.97199 26.413 7.57605 26.5437 7.40887C26.9259 6.93182 27.3587 6.49771 27.8346 6.11418C27.998 5.98094 28.35 5.96712 28.565 6.04379C28.756 6.11292 28.8754 6.38066 29.0275 6.55915L28.9433 6.62451Z" fill="white"/>
</g>
<defs>
<clipPath id="clip0_1097_202">
<rect width="40.2056" height="46.7432" fill="white" transform="translate(0.314453 0.00390625)"/>
</clipPath>
</defs>
</svg>
