<svg xmlns="http://www.w3.org/2000/svg" viewBox="0 0 255.9 221.93"><defs><style>.cls-1{fill:#d18e29;}</style></defs><g id="Layer_2" data-name="Layer 2"><g id="Layer_1-2" data-name="Layer 1"><path class="cls-1" d="M185.36,29c-5.91,4.1-11.43,8.11-17.18,11.74-1,.64-3.43.23-4.56-.59a90.63,90.63,0,0,0-56.21-17.26C66.32,23.78,29.5,57.48,23.78,98.6c-6.5,46.74,25.3,89.7,69.86,98.75,47,9.54,93.58-20.83,103.44-67.95,4-19,2.4-37.4-5.89-55-1.32-2.8-.92-4.48,1.36-6.34,4.88-4,9.6-8.13,14.44-12.25C232.41,97,227.57,162,177.5,199.86,130.34,235.55,61.33,227,25,181.16-13.39,132.71-6.91,64.63,39.93,25.77S151-4.57,185.36,29Z"/><path class="cls-1" d="M115.41,104.64c6.42-8.07,12.83-16.75,19.89-24.88C157.42,54.29,182.9,33.09,215,21.45c11.14-4,23.1-5.88,34.75-8.39,1.85-.4,4.09,1,6.14,1.53-1.45,1.72-2.57,4.07-4.42,5.06-54.94,29.44-97.89,70.74-125.95,126.82-2.82,5.64-5,11.6-7.7,17.3-.76,1.61-2.41,2.81-3.65,4.19-1.3-1.31-3.12-2.39-3.81-4-7.17-16.38-15.48-32.12-27.25-45.66a111.36,111.36,0,0,0-16.83-15.49C58,96.58,55.88,93.51,57.66,86.76,59.73,78.9,66.48,73.64,75.21,73,83,72.32,89.31,75.86,94.38,81,101.69,88.46,108.31,96.59,115.41,104.64Z"/></g></g></svg>