<svg xmlns="http://www.w3.org/2000/svg" viewBox="0 0 255.3 191.99"><defs><style>.cls-1{fill:#d18e29;}</style></defs><g id="Layer_2" data-name="Layer 2"><g id="Layer_1-2" data-name="Layer 1"><path class="cls-1" d="M56.15,156A176.72,176.72,0,0,1,3,104.19c-3.9-5.79-4.05-10.5-.08-16.32C26,54.1,55.65,29.43,96.13,19.66c28.36-6.84,56.19-4.48,83.12,6.68,3.88,1.61,5.83.89,8.43-1.83,6.67-7,13.6-13.74,20.46-20.56,4.71-4.68,9.47-5.21,13.05-1.53s3,8.25-1.48,12.7q-86.6,86.64-173.24,173.24c-4.4,4.4-9.22,4.78-12.7,1.22s-3-8.24,1.45-12.7C42,170,48.86,163.27,56.15,156Zm98.2-99.8,16.1-16.09a115.63,115.63,0,0,0-67.1-5.64C69.89,41.57,44.08,60.6,23.41,87.07c-8.19,10.5-8.21,7.07-.1,17.63a147.68,147.68,0,0,0,44,38.78L87.77,123c-14.44-21.82-8.65-46.62,5.77-60.91C110.21,45.59,132.93,43.44,154.35,56.21ZM142.57,68.13A31,31,0,0,0,104.22,74c-9.93,10.67-11.65,26.51-4.44,36.88Z"/><path class="cls-1" d="M87.14,169.16c4.26-3.89,8.08-7.54,12.13-10.92a5.46,5.46,0,0,1,4-.85c51,9.66,91-9.69,124.05-47.22,2.85-3.24,5.2-6.92,8-10.2,2.31-2.7,2.36-4.8.13-7.8a170.34,170.34,0,0,0-32.17-33.3c-.76-.6-1.46-1.28-2.21-1.93L213,45.86c2.1,1.68,5,3.79,7.71,6.17A175.56,175.56,0,0,1,253.4,90.2c2.51,4,2.57,7.61,0,11.58-24,36.71-55.83,62.59-99.64,71.67-21.39,4.44-42.67,3.16-63.69-2.7A20.29,20.29,0,0,1,87.14,169.16Z"/><path class="cls-1" d="M173.38,83.57c9.82,32.89-20.57,68-58.58,58.58,7.27-5.1,10.32-13.34,19.48-15.23,12.07-2.49,20.38-10.08,23.44-21.92a28.12,28.12,0,0,1,8.6-14C168.6,88.84,170.66,86.45,173.38,83.57Z"/></g></g></svg>