<svg xmlns="http://www.w3.org/2000/svg" viewBox="0 0 213.72 213.51"><defs><style>.cls-1{fill:#d18e29;}</style></defs><g id="Layer_2" data-name="Layer 2"><g id="Layer_1-2" data-name="Layer 1"><path class="cls-1" d="M192.25,106.84A85.25,85.25,0,0,0,109.56,21.6C101.65,21.34,97.14,18,96.5,12,95.74,4.8,100.91-.29,109,0c28.12,1.06,52.82,10.74,72.59,30.92,29.69,30.3,39.25,66.64,26.9,107.07-12.24,40.09-40.38,65-81.38,73.38C66.93,223.7,8.51,181.14.88,120.58c-.5-4-.76-8-.87-12-.2-7,4.08-12.1,10.25-12.38s11.12,4.41,11.21,11.47a83.56,83.56,0,0,0,9.32,37.91c16.33,31.59,49.77,50.68,86.61,45.69,39-5.28,67.78-33.86,73.47-71.09C191.55,115.79,191.8,111.3,192.25,106.84Z"/><path class="cls-1" d="M117.54,77.36c0,3.66.48,7.39-.09,11-1.71,10.82,2.31,19.11,9.87,26.58,5.3,5.24,9.81,11.29,14.5,17.12,4.31,5.36,3.88,11.63-.8,15.52s-11.4,3.05-15.85-2.23c-8.47-10-17.1-20-25.25-30.26a17.68,17.68,0,0,1-3.81-9.85c-.38-16.79-.19-33.6-.17-50.41,0-4.62,1.52-8.53,5.83-10.8a10.1,10.1,0,0,1,10.87.57c3.72,2.44,4.87,6.15,4.89,10.33C117.57,62.38,117.54,69.87,117.54,77.36Z"/><path class="cls-1" d="M38.53,49.63A11.28,11.28,0,0,1,28,38.51,11,11,0,0,1,39.16,28.1a11,11,0,0,1,10.3,10.79C49.38,44.58,44.12,49.76,38.53,49.63Z"/><path class="cls-1" d="M7.53,69.94A10.13,10.13,0,0,1,17.86,59.5,10.48,10.48,0,0,1,28.7,70.07a10.86,10.86,0,0,1-11,10.6A10.5,10.5,0,0,1,7.53,69.94Z"/><path class="cls-1" d="M59.44,17.84c.1-6.16,4.73-10.49,11-10.28a10.61,10.61,0,0,1,10.25,10.7A10.8,10.8,0,0,1,70.05,28.68,10.57,10.57,0,0,1,59.44,17.84Z"/></g></g></svg>